<?xml version="1.0" encoding="UTF-8" standalone="no"?>
<!-- Created with Inkscape (http://www.inkscape.org/) -->

<svg
   xmlns:dc="http://purl.org/dc/elements/1.1/"
   xmlns:cc="http://creativecommons.org/ns#"
   xmlns:rdf="http://www.w3.org/1999/02/22-rdf-syntax-ns#"
   xmlns:svg="http://www.w3.org/2000/svg"
   xmlns="http://www.w3.org/2000/svg"
   xmlns:sodipodi="http://sodipodi.sourceforge.net/DTD/sodipodi-0.dtd"
   xmlns:inkscape="http://www.inkscape.org/namespaces/inkscape"
   id="svg2"
   version="1.1"
   inkscape:version="0.91 r13725"
   xml:space="preserve"
   width="708.75"
   height="356.25"
   viewBox="0 0 708.75 356.25"
   sodipodi:docname="CLL_result.svg"><metadata
     id="metadata8"><rdf:RDF><cc:Work
         rdf:about=""><dc:format>image/svg+xml</dc:format><dc:type
           rdf:resource="http://purl.org/dc/dcmitype/StillImage" /><dc:title></dc:title></cc:Work></rdf:RDF></metadata><defs
     id="defs6" /><sodipodi:namedview
     pagecolor="#ffffff"
     bordercolor="#666666"
     borderopacity="1"
     objecttolerance="10"
     gridtolerance="10"
     guidetolerance="10"
     inkscape:pageopacity="0"
     inkscape:pageshadow="2"
     inkscape:window-width="1364"
     inkscape:window-height="747"
     id="namedview4"
     showgrid="false"
     inkscape:zoom="2.929193"
     inkscape:cx="422.25335"
     inkscape:cy="186.20023"
     inkscape:window-x="1920"
     inkscape:window-y="19"
     inkscape:window-maximized="0"
     inkscape:current-layer="g10" /><g
     id="g10"
     inkscape:groupmode="layer"
     inkscape:label="ink_ext_XXXXXX"
     transform="matrix(1.25,0,0,-1.25,0,356.25)"><g
       id="g12"
       transform="scale(0.1,0.1)"><path
         d="m 2834.65,10 5669.3,0 0,2834.65 -5669.3,0 0,-2834.65 z"
         style="fill:#ffffff;fill-opacity:1;fill-rule:nonzero;stroke:none"
         id="path14"
         inkscape:connector-curvature="0" /><g
         id="g16"
         transform="scale(10,10)"><text
           transform="matrix(1,0,0,-1,349.605,226.696)"
           style="font-variant:normal;font-weight:normal;font-size:11.33979988px;font-family:'DejaVu Sans';-inkscape-font-specification:DejaVuSans;writing-mode:lr-tb;fill:#000000;fill-opacity:1;fill-rule:nonzero;stroke:none"
           id="text18"><tspan
             x="0 6.9854417 13.029437 16.091106 23.087692 26.149361 33.145947 40.142532 43.634991 47.139168 54.124611 61.11005 65.63472 72.63131 79.61657 86.613152 90.117355 93.60984 100.58369 107.33094 118.0471 125.03254 129.34166 132.40331 135.90752 139.39999 145.12659 151.87384 162.59 169.56386 176.5493 183.54588 187.03836 190.54257 196.26917 199.33081 205.38611 212.38269 219.37927 226.1152"
             y="0"
             sodipodi:role="line"
             id="tspan20">bcl2l13, gpr158, namptl, samhd1, slc12a1</tspan><tspan
             x="0 6.9854417 13.959299 17.020967 20.728956 24.221415 28.50773 35.504314 39.008492 46.005081 53.001667 59.998253 63.490734 70.48732 73.991524 80.988106 87.984695 94.981277 98.473763 105.47035 108.97455 115.97114 122.96773 129.96431 133.45679 140.45338 143.95758 150.95416 157.95076 164.94734 168.43982 175.4364 178.94061 185.93719 192.93378 199.93037"
             y="13.2004"
             sodipodi:role="line"
             id="tspan22">phi: [0.903,0.951,0.989,0.944,0.616]</tspan></text>
</g><path
         d="m 3496.05,2372.22 -236.21,-135 c 0,-78.28 -63.43,-141.71 -141.72,-141.71 -78.28,0 -141.75,63.43 -141.75,141.71 0,78.29 63.47,141.72 141.75,141.72 78.29,0 141.72,-63.43 141.72,-141.72"
         style="fill:#303030;fill-opacity:1;fill-rule:nonzero;stroke:none"
         id="path24"
         inkscape:connector-curvature="0" /><path
         d="m 3496.05,2372.22 -236.21,-135 c 0,-78.28 -63.43,-141.71 -141.72,-141.71 -78.28,0 -141.75,63.43 -141.75,141.71 0,78.29 63.47,141.72 141.75,141.72 78.29,0 141.72,-63.43 141.72,-141.72"
         style="fill:none;stroke:#303030;stroke-width:20;stroke-linecap:butt;stroke-linejoin:miter;stroke-miterlimit:10;stroke-dasharray:none;stroke-opacity:1"
         id="path26"
         inkscape:connector-curvature="0" /><g
         id="g28"
         transform="scale(10,10)"><text
           transform="matrix(1,0,0,-1,349.605,64.7156)"
           style="font-variant:normal;font-weight:normal;font-size:11.33979988px;font-family:'DejaVu Sans';-inkscape-font-specification:DejaVuSans;writing-mode:lr-tb;fill:#000000;fill-opacity:1;fill-rule:nonzero;stroke:none"
           id="text30"><tspan
             x="0 6.9738579 17.690016 23.734011 30.707869 37.704456 41.208633 44.701088 51.074135 54.135803 61.109661 68.0951 74.139076 81.135658 84.639862 88.132347 95.106201 101.84187 108.82731"
             y="0"
             sodipodi:role="line"
             id="tspan32">hmcn1, klhdc2, nod1</tspan><tspan
             x="0 6.9854417 13.959299 17.020967 20.728956 24.221415 28.50773 35.504314 39.008492 46.005081 53.001667 59.998253 63.490734 70.48732 73.991524 80.988106 87.984695 94.981277 98.473763 105.47035 108.97455 115.97114 122.96773 129.96431 133.45679 140.45338 143.95758 150.95416 157.95076 164.94734 168.43982 175.4364 178.94061 185.93719 192.93378 199.93037"
             y="13.2004"
             sodipodi:role="line"
             id="tspan34">phi: [0.005,0.026,0.038,0.129,0.291]</tspan></text>
</g><path
         d="m 3496.05,752.422 -236.21,-135 c 0,-78.281 -63.43,-141.723 -141.72,-141.723 -78.28,0 -141.75,63.442 -141.75,141.723 0,78.277 63.47,141.719 141.75,141.719 78.29,0 141.72,-63.442 141.72,-141.719"
         style="fill:#303030;fill-opacity:1;fill-rule:nonzero;stroke:none"
         id="path36"
         inkscape:connector-curvature="0" /><path
         d="m 3496.05,752.422 -236.21,-135 c 0,-78.281 -63.43,-141.723 -141.72,-141.723 -78.28,0 -141.75,63.442 -141.75,141.723 0,78.277 63.47,141.719 141.75,141.719 78.29,0 141.72,-63.442 141.72,-141.719"
         style="fill:none;stroke:#303030;stroke-width:20;stroke-linecap:butt;stroke-linejoin:miter;stroke-miterlimit:10;stroke-dasharray:none;stroke-opacity:1"
         id="path38"
         inkscape:connector-curvature="0" /><g
         id="g40"
         transform="scale(10,10)"><text
           transform="matrix(1,0,0,-1,349.605,145.708)"
           style="font-variant:normal;font-weight:normal;font-size:11.33979988px;font-family:'DejaVu Sans';-inkscape-font-specification:DejaVuSans;writing-mode:lr-tb;fill:#000000;fill-opacity:1;fill-rule:nonzero;stroke:none"
           id="text42"><tspan
             x="0 3.0616689 7.3820205 11.668387 17.712383 24.708969 31.705555"
             y="0"
             sodipodi:role="line"
             id="tspan44">lrrc16a</tspan><tspan
             x="0 6.9854417 13.959299 17.020967 20.728956 24.221415 28.50773 35.504314 39.008492 46.005081 53.001667 59.998253 63.490734 70.48732 73.991524 80.988106 87.984695 94.981277 98.473763 105.47035 108.97455 115.97114 122.96773 129.96431 133.45679 140.45338 143.95758 150.95416 157.95076 164.94734 168.43982 175.4364 178.94061 185.93719 192.93378 199.93037"
             y="13.2004"
             sodipodi:role="line"
             id="tspan46">phi: [0.333,0.522,0.497,0.387,0.094]</tspan></text>
</g><path
         d="m 3496.05,1562.34 -236.21,-135 c 0,-78.28 -63.43,-141.76 -141.72,-141.76 -78.28,0 -141.75,63.48 -141.75,141.76 0,78.24 63.47,141.72 141.75,141.72 78.29,0 141.72,-63.48 141.72,-141.72"
         style="fill:#303030;fill-opacity:1;fill-rule:nonzero;stroke:none"
         id="path48"
         inkscape:connector-curvature="0" /><path
         d="m 3496.05,1562.34 -236.21,-135 c 0,-78.28 -63.43,-141.76 -141.72,-141.76 -78.28,0 -141.75,63.48 -141.75,141.76 0,78.24 63.47,141.72 141.75,141.72 78.29,0 141.72,-63.48 141.72,-141.72"
         style="fill:none;stroke:#303030;stroke-width:20;stroke-linecap:butt;stroke-linejoin:miter;stroke-miterlimit:10;stroke-dasharray:none;stroke-opacity:1"
         id="path50"
         inkscape:connector-curvature="0" /><g
         id="g52"
         transform="scale(10,10)"><text
           transform="matrix(1,0,0,-1,349.605,186.2)"
           style="font-variant:normal;font-weight:normal;font-size:11.33979988px;font-family:'DejaVu Sans';-inkscape-font-specification:DejaVuSans;writing-mode:lr-tb;fill:#000000;fill-opacity:1;fill-rule:nonzero;stroke:none"
           id="text54"><tspan
             x="0 6.9854417 13.732687 19.504467 26.251711 33.237152 40.233738 43.726196 47.230373 53.796051 59.976063 66.700394 72.755692 79.752281 86.737724 90.230202 93.734406 100.71985 107.6937 114.67915 120.72311 124.22732 127.7198 134.45546 140.51076 147.24667 154.24327 157.74747 161.23994 168.22539 171.28703 178.03429 185.03087 192.01631 199.01289"
             y="0"
             sodipodi:role="line"
             id="tspan56">dazap1, exoc6b, ghdc, oca2, pla2g16</tspan><tspan
             x="0 6.9854417 13.959299 17.020967 20.728956 24.221415 28.50773 35.504314 39.008492 46.005081 53.001667 59.998253 63.490734 70.48732 73.991524 80.988106 87.984695 94.981277 98.473763 105.47035 108.97455 115.97114 122.96773 129.96431 133.45679 140.45338 143.95758 150.95416 157.95076 164.94734 168.43982 175.4364 178.94061 185.93719 192.93378 199.93037"
             y="13.2004"
             sodipodi:role="line"
             id="tspan58">phi: [0.721,0.793,0.795,0.653,0.227]</tspan></text>
</g><path
         d="m 3496.05,1967.26 -236.21,-135 c 0,-78.28 -63.43,-141.72 -141.72,-141.72 -78.28,0 -141.75,63.44 -141.75,141.72 0,78.28 63.47,141.76 141.75,141.76 78.29,0 141.72,-63.48 141.72,-141.76"
         style="fill:#303030;fill-opacity:1;fill-rule:nonzero;stroke:none"
         id="path60"
         inkscape:connector-curvature="0" /><path
         d="m 3496.05,1967.26 -236.21,-135 c 0,-78.28 -63.43,-141.72 -141.72,-141.72 -78.28,0 -141.75,63.44 -141.75,141.72 0,78.28 63.47,141.76 141.75,141.76 78.29,0 141.72,-63.48 141.72,-141.76"
         style="fill:none;stroke:#303030;stroke-width:20;stroke-linecap:butt;stroke-linejoin:miter;stroke-miterlimit:10;stroke-dasharray:none;stroke-opacity:1"
         id="path62"
         inkscape:connector-curvature="0" /><g
         id="g64"
         transform="scale(10,10)"><text
           transform="matrix(1,0,0,-1,349.605,105.212)"
           style="font-variant:normal;font-weight:normal;font-size:11.33979988px;font-family:'DejaVu Sans';-inkscape-font-specification:DejaVuSans;writing-mode:lr-tb;fill:#000000;fill-opacity:1;fill-rule:nonzero;stroke:none"
           id="text66"><tspan
             x="0 6.0553226 12.779656 15.841325 22.837912 29.834497 36.581745 43.578331 47.070789 50.574963 61.279793 68.027039 75.012482 82.009071 88.382088"
             y="0"
             sodipodi:role="line"
             id="tspan68">col24a1, map2k1</tspan><tspan
             x="0 6.9854417 13.959299 17.020967 20.728956 24.221415 28.50773 35.504314 39.008492 46.005081 53.001667 59.998253 63.490734 70.48732 73.991524 80.988106 87.984695 94.981277 98.473763 105.47035 108.97455 115.97114 122.96773 129.96431 133.45679 140.45338 143.95758 150.95416 157.95076 164.94734 168.43982 175.4364 178.94061 185.93719 192.93378 199.93037"
             y="13.2004"
             sodipodi:role="line"
             id="tspan70">phi: [0.006,0.027,0.044,0.146,0.333]</tspan></text>
</g><path
         d="m 3496.05,1157.38 -236.21,-135 c 0,-78.278 -63.43,-141.759 -141.72,-141.759 -78.28,0 -141.75,63.481 -141.75,141.759 0,78.28 63.47,141.72 141.75,141.72 78.29,0 141.72,-63.44 141.72,-141.72"
         style="fill:#303030;fill-opacity:1;fill-rule:nonzero;stroke:none"
         id="path72"
         inkscape:connector-curvature="0" /><path
         d="m 3496.05,1157.38 -236.21,-135 c 0,-78.278 -63.43,-141.759 -141.72,-141.759 -78.28,0 -141.75,63.481 -141.75,141.759 0,78.28 63.47,141.72 141.75,141.72 78.29,0 141.72,-63.44 141.72,-141.72"
         style="fill:none;stroke:#303030;stroke-width:20;stroke-linecap:butt;stroke-linejoin:miter;stroke-miterlimit:10;stroke-dasharray:none;stroke-opacity:1"
         id="path74"
         inkscape:connector-curvature="0" /><g
         id="g76"
         transform="scale(10,10)"><text
           transform="matrix(1,0,0,-1,304.313,216.171)"
           style="font-variant:normal;font-weight:normal;font-size:22.67970085px;font-family:'DejaVu Sans';-inkscape-font-specification:DejaVuSans;writing-mode:lr-tb;fill:#ffffff;fill-opacity:1;fill-rule:nonzero;stroke:none"
           id="text78"><tspan
             x="0"
             y="0"
             id="tspan80">1</tspan><tspan
             x="0"
             y="161.98"
             id="tspan82">5</tspan><tspan
             x="0"
             y="80.987801"
             id="tspan84">3</tspan><tspan
             x="0"
             y="40.495602"
             id="tspan86">2</tspan><tspan
             x="0"
             y="121.4839"
             id="tspan88">4</tspan></text>
</g><path
         d="m 0,10 2834.65,0 0,2834.65 L 0,2844.65 0,10 Z"
         style="fill:#ffffff;fill-opacity:1;fill-rule:nonzero;stroke:none"
         id="path90"
         inkscape:connector-curvature="0" /><path
         d="m 2125.98,1427.34 0,-944.879"
         style="fill:none;stroke:#303030;stroke-width:20;stroke-linecap:butt;stroke-linejoin:miter;stroke-miterlimit:10;stroke-dasharray:none;stroke-opacity:1"
         id="path92"
         inkscape:connector-curvature="0" /><path
         d="m 708.672,1427.34 0,-944.879"
         style="fill:none;stroke:#303030;stroke-width:20;stroke-linecap:butt;stroke-linejoin:miter;stroke-miterlimit:10;stroke-dasharray:none;stroke-opacity:1"
         id="path94"
         inkscape:connector-curvature="0" /><path
         d="M 708.672,2372.22 2125.98,1427.34"
         style="fill:none;stroke:#303030;stroke-width:20;stroke-linecap:butt;stroke-linejoin:miter;stroke-miterlimit:10;stroke-dasharray:none;stroke-opacity:1"
         id="path96"
         inkscape:connector-curvature="0" /><path
         d="m 708.672,2372.22 0,-944.88"
         style="fill:none;stroke:#303030;stroke-width:20;stroke-linecap:butt;stroke-linejoin:miter;stroke-miterlimit:10;stroke-dasharray:none;stroke-opacity:1"
         id="path98"
         inkscape:connector-curvature="0" /><path
         d="m 2267.73,482.461 c 0,-78.281 -63.47,-141.762 -141.75,-141.762 -78.28,0 -141.72,63.481 -141.72,141.762 0,78.238 63.44,141.719 141.72,141.719 78.28,0 141.75,-63.481 141.75,-141.719"
         style="fill:#303030;fill-opacity:1;fill-rule:nonzero;stroke:none"
         id="path100"
         inkscape:connector-curvature="0" /><path
         d="m 2267.73,482.461 c 0,-78.281 -63.47,-141.762 -141.75,-141.762 -78.28,0 -141.72,63.481 -141.72,141.762 0,78.238 63.44,141.719 141.72,141.719 78.28,0 141.75,-63.481 141.75,-141.719"
         style="fill:none;stroke:#303030;stroke-width:14.17319965;stroke-linecap:butt;stroke-linejoin:miter;stroke-miterlimit:10;stroke-dasharray:none;stroke-opacity:1"
         id="path102"
         inkscape:connector-curvature="0" /><path
         d="m 850.391,482.461 c 0,-78.281 -63.442,-141.762 -141.719,-141.762 -78.281,0 -141.762,63.481 -141.762,141.762 0,78.238 63.481,141.719 141.762,141.719 78.277,0 141.719,-63.481 141.719,-141.719"
         style="fill:#303030;fill-opacity:1;fill-rule:nonzero;stroke:none"
         id="path104"
         inkscape:connector-curvature="0" /><path
         d="m 850.391,482.461 c 0,-78.281 -63.442,-141.762 -141.719,-141.762 -78.281,0 -141.762,63.481 -141.762,141.762 0,78.238 63.481,141.719 141.762,141.719 78.277,0 141.719,-63.481 141.719,-141.719"
         style="fill:none;stroke:#303030;stroke-width:14.17319965;stroke-linecap:butt;stroke-linejoin:miter;stroke-miterlimit:10;stroke-dasharray:none;stroke-opacity:1"
         id="path106"
         inkscape:connector-curvature="0" /><path
         d="m 2267.73,1427.34 c 0,-78.28 -63.47,-141.76 -141.75,-141.76 -78.28,0 -141.72,63.48 -141.72,141.76 0,78.24 63.44,141.72 141.72,141.72 78.28,0 141.75,-63.48 141.75,-141.72"
         style="fill:#303030;fill-opacity:1;fill-rule:nonzero;stroke:none"
         id="path108"
         inkscape:connector-curvature="0" /><path
         d="m 2267.73,1427.34 c 0,-78.28 -63.47,-141.76 -141.75,-141.76 -78.28,0 -141.72,63.48 -141.72,141.76 0,78.24 63.44,141.72 141.72,141.72 78.28,0 141.75,-63.48 141.75,-141.72"
         style="fill:none;stroke:#303030;stroke-width:14.17319965;stroke-linecap:butt;stroke-linejoin:miter;stroke-miterlimit:10;stroke-dasharray:none;stroke-opacity:1"
         id="path110"
         inkscape:connector-curvature="0" /><path
         d="m 850.391,1427.34 c 0,-78.28 -63.442,-141.76 -141.719,-141.76 -78.281,0 -141.762,63.48 -141.762,141.76 0,78.24 63.481,141.72 141.762,141.72 78.277,0 141.719,-63.48 141.719,-141.72"
         style="fill:#303030;fill-opacity:1;fill-rule:nonzero;stroke:none"
         id="path112"
         inkscape:connector-curvature="0" /><path
         d="m 850.391,1427.34 c 0,-78.28 -63.442,-141.76 -141.719,-141.76 -78.281,0 -141.762,63.48 -141.762,141.76 0,78.24 63.481,141.72 141.762,141.72 78.277,0 141.719,-63.48 141.719,-141.72"
         style="fill:none;stroke:#303030;stroke-width:14.17319965;stroke-linecap:butt;stroke-linejoin:miter;stroke-miterlimit:10;stroke-dasharray:none;stroke-opacity:1"
         id="path114"
         inkscape:connector-curvature="0" /><path
         d="m 850.391,2372.22 c 0,-78.28 -63.442,-141.75 -141.719,-141.75 -78.281,0 -141.762,63.47 -141.762,141.75 0,78.25 63.481,141.72 141.762,141.72 78.277,0 141.719,-63.47 141.719,-141.72"
         style="fill:#303030;fill-opacity:1;fill-rule:nonzero;stroke:none"
         id="path116"
         inkscape:connector-curvature="0" /><path
         d="m 850.391,2372.22 c 0,-78.28 -63.442,-141.75 -141.719,-141.75 -78.281,0 -141.762,63.47 -141.762,141.75 0,78.25 63.481,141.72 141.762,141.72 78.277,0 141.719,-63.47 141.719,-141.72"
         style="fill:none;stroke:#303030;stroke-width:14.17319965;stroke-linecap:butt;stroke-linejoin:miter;stroke-miterlimit:10;stroke-dasharray:none;stroke-opacity:1"
         id="path118"
         inkscape:connector-curvature="0" /><g
         id="g120"
         transform="scale(10,10)"><text
           transform="matrix(1,0,0,-1,205.098,40.6941)"
           style="font-variant:normal;font-weight:normal;font-size:22.67970085px;font-family:'DejaVu Sans';-inkscape-font-specification:DejaVuSans;writing-mode:lr-tb;fill:#ffffff;fill-opacity:1;fill-rule:nonzero;stroke:none"
           id="text122"><tspan
             x="0 -141.72"
             y="0"
             sodipodi:role="line"
             id="tspan124">53</tspan><tspan
             x="0 -141.72"
             y="-94.488297"
             sodipodi:role="line"
             id="tspan126">42</tspan><tspan
             x="-141.73016"
             y="-188.97659"
             id="tspan128">1</tspan></text>
</g></g><rect
       style="fill:#ffffff;fill-opacity:1;stroke:#ffffff;stroke-width:0.68314964;stroke-miterlimit:4;stroke-dasharray:none;stroke-dashoffset:0;stroke-opacity:1"
       id="rect3502"
       width="22.66836"
       height="22.66836"
       x="327.18909"
       y="-239.24678"
       transform="scale(1,-1)" /><rect
       style="fill:#ffffff;fill-opacity:1;stroke:#ffffff;stroke-width:0.67889869;stroke-miterlimit:4;stroke-dasharray:none;stroke-dashoffset:0;stroke-opacity:1"
       id="rect3502-8"
       width="22.382931"
       height="22.672611"
       x="327.30142"
       y="-200.91524"
       transform="scale(1,-1)" /><rect
       style="fill:#ffffff;fill-opacity:1;stroke:#ffffff;stroke-width:0.68031871;stroke-miterlimit:4;stroke-dasharray:none;stroke-dashoffset:0;stroke-opacity:1"
       id="rect3502-4"
       width="22.478071"
       height="22.67119"
       x="327.24426"
       y="-163.18631"
       transform="scale(1,-1)" /><rect
       style="fill:#ffffff;fill-opacity:1;stroke:#ffffff;stroke-width:0.68031871;stroke-miterlimit:4;stroke-dasharray:none;stroke-dashoffset:0;stroke-opacity:1"
       id="rect3502-3"
       width="22.478071"
       height="22.67119"
       x="327.24426"
       y="-123.03873"
       transform="scale(1,-1)" /><rect
       style="fill:#ffffff;fill-opacity:1;stroke:#ffffff;stroke-width:0.68031871;stroke-miterlimit:4;stroke-dasharray:none;stroke-dashoffset:0;stroke-opacity:1"
       id="rect3502-1"
       width="22.478071"
       height="22.67119"
       x="327.24426"
       y="-81.252472"
       transform="scale(1,-1)" /></g></svg>