<?xml version="1.0" encoding="UTF-8" standalone="no"?>
<!-- Created with Inkscape (http://www.inkscape.org/) -->

<svg
   xmlns:dc="http://purl.org/dc/elements/1.1/"
   xmlns:cc="http://creativecommons.org/ns#"
   xmlns:rdf="http://www.w3.org/1999/02/22-rdf-syntax-ns#"
   xmlns:svg="http://www.w3.org/2000/svg"
   xmlns="http://www.w3.org/2000/svg"
   xmlns:sodipodi="http://sodipodi.sourceforge.net/DTD/sodipodi-0.dtd"
   xmlns:inkscape="http://www.inkscape.org/namespaces/inkscape"
   width="437.62646"
   height="160.21484"
   id="svg2"
   sodipodi:version="0.32"
   inkscape:version="0.48.4 r9939"
   sodipodi:docname="retrospective_reversible_jump.svg"
   version="1.0">
  <sodipodi:namedview
     id="base"
     pagecolor="#ffffff"
     bordercolor="#666666"
     borderopacity="1.0"
     inkscape:pageopacity="0.0"
     inkscape:pageshadow="2"
     inkscape:zoom="2.8284271"
     inkscape:cx="160.01435"
     inkscape:cy="77.858696"
     inkscape:document-units="mm"
     inkscape:current-layer="layer1"
     inkscape:window-width="1711"
     inkscape:window-height="868"
     inkscape:window-x="33"
     inkscape:window-y="22"
     width="12.8cm"
     height="9.6cm"
     units="cm"
     showgrid="true"
     grid_units="mm"
     inkscape:object-paths="false"
     inkscape:grid-points="true"
     inkscape:grid-bbox="true"
     inkscape:guide-points="true"
     showguides="true"
     inkscape:guide-bbox="true"
     inkscape:window-maximized="0"
     fit-margin-top="0"
     fit-margin-left="0"
     fit-margin-right="0"
     fit-margin-bottom="0">
    <sodipodi:guide
       orientation="vertical"
       position="119.15159,-165.76907"
       id="guide3573" />
    <sodipodi:guide
       orientation="horizontal"
       position="62.675063,-154.73343"
       id="guide3579" />
    <sodipodi:guide
       orientation="horizontal"
       position="62.675063,-141.75032"
       id="guide3886" />
    <sodipodi:guide
       orientation="horizontal"
       position="62.675063,119.85934"
       id="guide3988" />
    <sodipodi:guide
       orientation="horizontal"
       position="69.761677,146.04195"
       id="guide4081" />
    <inkscape:grid
       id="GridFromPre046Settings"
       type="xygrid"
       originx="17.688296mm"
       originy="-46.783715mm"
       spacingx="2mm"
       spacingy="2mm"
       color="#3f3fff"
       empcolor="#3f3fff"
       opacity="0.15"
       empopacity="0.38"
       empspacing="5"
       units="mm"
       visible="true"
       enabled="true"
       snapvisiblegridlinesonly="true" />
  </sodipodi:namedview>
  <defs
     id="defs4">
    <marker
       inkscape:stockid="Arrow2Mend"
       orient="auto"
       refY="0"
       refX="0"
       id="Arrow2Mend"
       style="overflow:visible">
      <path
         id="path4026"
         style="fill-rule:evenodd;stroke-width:0.625;stroke-linejoin:round"
         d="M 8.7185878,4.0337352 -2.2072895,0.01601326 8.7185884,-4.0017078 c -1.7454984,2.3720609 -1.7354408,5.6174519 -6e-7,8.035443 z"
         transform="scale(-0.6,-0.6)"
         inkscape:connector-curvature="0" />
    </marker>
    <marker
       inkscape:stockid="Arrow1Lend"
       orient="auto"
       refY="0"
       refX="0"
       id="Arrow1Lend"
       style="overflow:visible">
      <path
         id="path4002"
         d="M 0,0 5,-5 -12.5,0 5,5 0,0 z"
         style="fill-rule:evenodd;stroke:#000000;stroke-width:1pt"
         transform="matrix(-0.8,0,0,-0.8,-10,0)"
         inkscape:connector-curvature="0" />
    </marker>
    <marker
       inkscape:stockid="Arrow2MendZ"
       orient="auto"
       refY="0"
       refX="0"
       id="Arrow2MendZ"
       style="overflow:visible">
      <path
         id="path4632"
         style="fill:#999999;fill-rule:evenodd;stroke:#999999;stroke-width:0.625;stroke-linejoin:round"
         d="M 8.7185878,4.0337352 -2.2072895,0.01601326 8.7185884,-4.0017078 c -1.7454984,2.3720609 -1.7354408,5.6174519 -6e-7,8.035443 z"
         transform="scale(-0.6,-0.6)"
         inkscape:connector-curvature="0" />
    </marker>
    <marker
       inkscape:stockid="Arrow2Mend9"
       orient="auto"
       refY="0"
       refX="0"
       id="Arrow2Mend9"
       style="overflow:visible">
      <path
         id="path4902"
         style="fill:#808080;fill-rule:evenodd;stroke:#808080;stroke-width:0.625;stroke-linejoin:round"
         d="M 8.7185878,4.0337352 -2.2072895,0.01601326 8.7185884,-4.0017078 c -1.7454984,2.3720609 -1.7354408,5.6174519 -6e-7,8.035443 z"
         transform="scale(-0.6,-0.6)"
         inkscape:connector-curvature="0" />
    </marker>
    <marker
       inkscape:stockid="Arrow2Mend9"
       orient="auto"
       refY="0"
       refX="0"
       id="Arrow2Mend9-3"
       style="overflow:visible">
      <path
         inkscape:connector-curvature="0"
         id="path4902-6"
         style="fill:#808080;fill-rule:evenodd;stroke:#808080;stroke-width:0.625;stroke-linejoin:round"
         d="M 8.7185878,4.0337352 -2.2072895,0.01601326 8.7185884,-4.0017078 c -1.7454984,2.3720609 -1.7354408,5.6174519 -6e-7,8.035443 z"
         transform="scale(-0.6,-0.6)" />
    </marker>
    <marker
       inkscape:stockid="Arrow2Mend9"
       orient="auto"
       refY="0"
       refX="0"
       id="Arrow2Mend9-4"
       style="overflow:visible">
      <path
         inkscape:connector-curvature="0"
         id="path4902-3"
         style="fill:#808080;fill-rule:evenodd;stroke:#808080;stroke-width:0.625;stroke-linejoin:round"
         d="M 8.7185878,4.0337352 -2.2072895,0.01601326 8.7185884,-4.0017078 c -1.7454984,2.3720609 -1.7354408,5.6174519 -6e-7,8.035443 z"
         transform="scale(-0.6,-0.6)" />
    </marker>
  </defs>
  <metadata
     id="metadata7">
    <rdf:RDF>
      <cc:Work
         rdf:about="">
        <dc:format>image/svg+xml</dc:format>
        <dc:type
           rdf:resource="http://purl.org/dc/dcmitype/StillImage" />
        <dc:title />
      </cc:Work>
    </rdf:RDF>
  </metadata>
  <g
     inkscape:label="Layer 1"
     inkscape:groupmode="layer"
     id="layer1"
     transform="translate(62.675067,-712.20505)">
    <path
       style="fill:#87de87;fill-opacity:1;stroke:#808080;stroke-width:1px;stroke-linecap:butt;stroke-linejoin:miter;stroke-opacity:1"
       d="m -26.66142,847.59054 c 28.34646,0 24.87141,-28.23288 41.90551,-28.34645 17.034103,-0.11357 14.7874,28.34645 43.133863,28.34645"
       id="path3003-0-4-1"
       inkscape:connector-curvature="0"
       sodipodi:nodetypes="csc" />
    <path
       style="fill:#ff8080;fill-opacity:1;stroke:#ececec;stroke-width:1px;stroke-linecap:butt;stroke-linejoin:miter;stroke-opacity:1"
       d="m -26.66142,847.59054 c 28.346457,0 27.627036,-14.1782 42.56693,-14.17322 14.939892,0.005 14.125984,14.17322 42.472442,14.17322"
       id="path3003-0-5"
       inkscape:connector-curvature="0"
       sodipodi:nodetypes="czc" />
    <path
       style="fill:#5599ff;fill-opacity:1;stroke:#808080;stroke-width:1px;stroke-linecap:butt;stroke-linejoin:miter;stroke-opacity:1"
       d="m 131.3753,847.59054 c 28.34646,0 22.25933,-42.46868 42.3033,-42.51968 20.04397,-0.051 14.38961,42.51968 42.73607,42.51968"
       id="path3003-05"
       inkscape:connector-curvature="0"
       sodipodi:nodetypes="csc" />
    <path
       style="fill:#87de87;fill-opacity:1;stroke:#e6e6e6;stroke-width:1px;stroke-linecap:butt;stroke-linejoin:miter;stroke-opacity:1"
       d="m 131.3753,847.59054 c 28.34646,0 24.87141,-28.23288 41.90551,-28.34645 17.0341,-0.11357 14.7874,28.34645 43.13386,28.34645"
       id="path3003-0-4-4"
       inkscape:connector-curvature="0"
       sodipodi:nodetypes="csc" />
    <path
       style="fill:#ff8080;fill-opacity:1;stroke:#ececec;stroke-width:1px;stroke-linecap:butt;stroke-linejoin:miter;stroke-opacity:1"
       d="m 131.3753,847.59054 c 28.34646,0 27.62703,-14.1782 42.56693,-14.17322 14.93989,0.005 14.12598,14.17322 42.47244,14.17322"
       id="path3003-0-00"
       inkscape:connector-curvature="0"
       sodipodi:nodetypes="czc" />
    <path
       style="fill:#ffdd55;stroke:#808080;stroke-width:1px;stroke-linecap:butt;stroke-linejoin:miter;stroke-opacity:1"
       d="m 289.41203,847.59054 c 28.34646,0 22.25933,-42.46868 42.3033,-42.51968 20.04398,-0.051 14.38962,42.51968 42.73607,42.51968"
       id="path3003-7"
       inkscape:connector-curvature="0"
       sodipodi:nodetypes="csc" />
    <path
       style="fill:#5599ff;fill-opacity:1;stroke:#e6e6e6;stroke-width:1px;stroke-linecap:butt;stroke-linejoin:miter;stroke-opacity:1"
       d="m 289.41203,847.59054 c 28.34646,0 24.87141,-28.23288 41.90551,-28.34645 17.0341,-0.11357 14.7874,28.34645 43.13386,28.34645"
       id="path3003-0-4-9"
       inkscape:connector-curvature="0"
       sodipodi:nodetypes="csc" />
    <path
       style="fill:#87de87;fill-opacity:1;stroke:#ececec;stroke-width:1px;stroke-linecap:butt;stroke-linejoin:miter;stroke-opacity:1"
       d="m 289.41203,847.59054 c 28.34646,0 27.62704,-14.1782 42.56693,-14.17322 14.9399,0.005 14.12599,14.17322 42.47244,14.17322"
       id="path3003-0-07"
       inkscape:connector-curvature="0"
       sodipodi:nodetypes="czc" />
    <path
       style="fill:#ff8080;fill-opacity:1;stroke:#808080;stroke-width:1px;stroke-linecap:butt;stroke-linejoin:miter;stroke-opacity:1"
       d="m -26.66142,775.93699 c 28.34646,0 22.25933,-42.46868 42.3033,-42.51968 20.04397,-0.051 14.38962,42.51968 42.73607,42.51968"
       id="path3003-97-9"
       inkscape:connector-curvature="0"
       sodipodi:nodetypes="csc" />
    <path
       style="fill:none;stroke:#ececec;stroke-width:1px;stroke-linecap:butt;stroke-linejoin:miter;stroke-opacity:1"
       d="m -26.66142,775.93699 c 28.34646,0 27.62703,-14.1782 42.56693,-14.17322 14.93989,0.005 14.12598,14.17322 42.47244,14.17322"
       id="path3003-0-5-6"
       inkscape:connector-curvature="0"
       sodipodi:nodetypes="czc" />
    <path
       style="fill:none;stroke:#e6e6e6;stroke-width:1px;stroke-linecap:butt;stroke-linejoin:miter;stroke-opacity:1"
       d="m -26.66142,775.93699 c 28.34646,0 24.87141,-28.23288 41.90551,-28.34645 17.0341,-0.11357 14.7874,28.34645 43.13386,28.34645"
       id="path3003-0-4-1-7"
       inkscape:connector-curvature="0"
       sodipodi:nodetypes="csc" />
    <path
       style="fill:#87de87;stroke:#808080;stroke-width:1px;stroke-linecap:butt;stroke-linejoin:miter;stroke-opacity:1"
       d="m 131.3753,775.93699 c 28.34646,0 22.25933,-42.46868 42.3033,-42.51968 20.04397,-0.051 14.38961,42.51968 42.73607,42.51968"
       id="path3003-05-8"
       inkscape:connector-curvature="0"
       sodipodi:nodetypes="csc" />
    <path
       style="fill:none;stroke:#ececec;stroke-width:1px;stroke-linecap:butt;stroke-linejoin:miter;stroke-opacity:1"
       d="m 131.3753,775.93699 c 28.34646,0 27.62703,-14.1782 42.56693,-14.17322 14.93989,0.005 14.12598,14.17322 42.47244,14.17322"
       id="path3003-0-00-1"
       inkscape:connector-curvature="0"
       sodipodi:nodetypes="czc" />
    <path
       style="fill:none;stroke:#e6e6e6;stroke-width:1px;stroke-linecap:butt;stroke-linejoin:miter;stroke-opacity:1"
       d="m 131.3753,775.93699 c 28.34646,0 24.87141,-28.23288 41.90551,-28.34645 17.0341,-0.11357 14.7874,28.34645 43.13386,28.34645"
       id="path3003-0-4-4-4"
       inkscape:connector-curvature="0"
       sodipodi:nodetypes="csc" />
    <path
       style="fill:#5599ff;stroke:#808080;stroke-width:1px;stroke-linecap:butt;stroke-linejoin:miter;stroke-opacity:1"
       d="m 289.41203,775.93699 c 28.34646,0 22.25933,-42.46868 42.3033,-42.51968 20.04398,-0.051 14.38962,42.51968 42.73607,42.51968"
       id="path3003-7-1"
       inkscape:connector-curvature="0"
       sodipodi:nodetypes="csc" />
    <path
       style="fill:none;stroke:#ececec;stroke-width:1px;stroke-linecap:butt;stroke-linejoin:miter;stroke-opacity:1"
       d="m 289.41203,775.93699 c 28.34646,0 27.62704,-14.1782 42.56693,-14.17322 14.9399,0.005 14.12599,14.17322 42.47244,14.17322"
       id="path3003-0-07-5"
       inkscape:connector-curvature="0"
       sodipodi:nodetypes="czc" />
    <path
       style="fill:none;stroke:#e6e6e6;stroke-width:1px;stroke-linecap:butt;stroke-linejoin:miter;stroke-opacity:1"
       d="m 289.41203,775.93699 c 28.34646,0 24.87141,-28.23288 41.90551,-28.34645 17.0341,-0.11357 14.7874,28.34645 43.13386,28.34645"
       id="path3003-0-4-9-5"
       inkscape:connector-curvature="0"
       sodipodi:nodetypes="csc" />
    <path
       sodipodi:nodetypes="cc"
       style="fill:#808080;fill-opacity:1;stroke:#999999;stroke-width:0.99921262;stroke-linecap:butt;stroke-linejoin:miter;stroke-miterlimit:4;stroke-opacity:1;stroke-dasharray:2.99763787, 2.99763787;stroke-dashoffset:0;marker-end:url(#Arrow2MendZ)"
       d="M 179.76197,45.440875 330.50271,142.82402"
       id="path3993"
       inkscape:connector-curvature="0"
       transform="translate(-4.149475e-6,698.0315)" />
    <path
       transform="translate(-4.149475e-6,698.0315)"
       inkscape:connector-curvature="0"
       id="path4698"
       d="m 173.91957,57.017482 -0.35355,72.902648"
       style="fill:none;stroke:#999999;stroke-width:1;stroke-linecap:butt;stroke-linejoin:miter;stroke-miterlimit:4;stroke-opacity:1;stroke-dasharray:3, 3;stroke-dashoffset:0;marker-end:url(#Arrow2Mend9)"
       sodipodi:nodetypes="cc" />
    <path
       inkscape:connector-curvature="0"
       id="path4698-9"
       d="M 163.35108,771.27787 15.817883,827.74295"
       style="fill:none;stroke:#999999;stroke-width:1;stroke-linecap:butt;stroke-linejoin:miter;stroke-miterlimit:4;stroke-opacity:1;stroke-dasharray:3, 3;stroke-dashoffset:0;marker-end:url(#Arrow2Mend9)"
       sodipodi:nodetypes="cc" />
    <g
       id="g6840"
       transform="matrix(0.50626024,0,0,0.50626024,-245.49213,633.59693)">
      <g
         id="g6842"
         transform="matrix(0.48593924,0,0,-0.48593924,-85.039367,340.15747)"
         xml:space="preserve"
         stroke-miterlimit="10.433"
         font-style="normal"
         font-variant="normal"
         font-weight="normal"
         font-stretch="normal"
         font-size-adjust="none"
         letter-spacing="normal"
         word-spacing="normal"
         style="font-style:normal;font-variant:normal;font-weight:normal;font-stretch:normal;letter-spacing:normal;word-spacing:normal;text-anchor:start;fill:none;stroke:#000000;stroke-linecap:butt;stroke-linejoin:miter;stroke-miterlimit:10.43299961;stroke-opacity:1;stroke-dasharray:none;stroke-dashoffset:0"><path
           d="m 1196.9,366.57 0,0.01 0,0.02 0,0.02 0,0.01 0,0.02 0,0.03 0,0.02 0,0.02 0,0.02 -0.1,0.03 0,0.02 0,0.03 0,0.05 0,0.05 0,0.05 -0.1,0.05 0,0.02 0,0.03 0,0.02 0,0.03 0,0.02 0,0.02 0,0.02 0,0.02 0,0.02 0,0.02 0,0.01 0,0.02 c 0,0.05 0.9,0.75 1.4,1.14 l 8.7,6.73 c 4.7,3.44 6.7,3.63 8.1,3.79 0.5,0.04 1,0.09 1,1 0,0.18 -0.2,0.54 -0.6,0.54 -1.1,0 -2.3,-0.15 -3.5,-0.15 -1.8,0 -3.8,0.15 -5.6,0.15 -0.3,0 -0.9,0 -0.9,-1 0,-0.34 0.2,-0.5 0.6,-0.54 1.1,-0.1 1.5,-0.35 1.5,-1.05 0,-0.89 -1.5,-2.05 -1.8,-2.3 l -19.4,-14.94 4,15.99 c 0.4,1.8 0.6,2.3 4.2,2.3 1.2,0 1.7,0 1.7,1 0,0.43 -0.4,0.54 -0.7,0.54 -1.4,0 -5,-0.15 -6.4,-0.15 -1.4,0 -5,0.15 -6.4,0.15 -0.4,0 -1,0 -1,-0.95 0,-0.59 0.4,-0.59 1.4,-0.59 0.7,0 1.6,-0.05 2.2,-0.1 0.7,-0.11 1.1,-0.25 1.1,-0.79 0,-0.21 -0.1,-0.36 -0.2,-0.96 l -6.7,-26.75 c -0.5,-1.95 -0.6,-2.34 -4.6,-2.34 -0.8,0 -1.4,0 -1.4,-0.95 0,-0.6 0.6,-0.6 0.8,-0.6 1.4,0 4.9,0.16 6.3,0.16 1.1,0 2.2,-0.06 3.2,-0.06 1.1,0 2.2,-0.1 3.2,-0.1 0.4,0 1,0 1,1 0,0.55 -0.4,0.55 -1.3,0.55 -1.9,0 -3.3,0 -3.3,0.89 0,0.36 0.3,1.45 0.5,2.2 0.7,2.58 1.3,5.22 2,7.81 l 7.4,5.79 5.8,-13.41 c 0.6,-1.34 0.6,-1.44 0.6,-1.73 0,-1.5 -2.2,-1.55 -2.6,-1.55 -0.6,0 -1.1,0 -1.1,-1 0,-0.55 0.6,-0.55 0.7,-0.55 2,0 4.1,0.16 6.1,0.16 1.1,0 3.7,-0.16 4.8,-0.16 0.3,0 0.9,0 0.9,1 0,0.55 -0.5,0.55 -1,0.55 -2,0.05 -2.6,0.5 -3.4,2.23 z"
           id="path6844"
           inkscape:connector-curvature="0"
           style="fill:#000000;stroke-width:0" /><path
           d="m 1265.4,362.74 0.2,0 0.1,0 0.2,0 0,0.01 0.1,0 0.1,0.01 0,0.01 0.1,0.01 0.1,0.01 0.1,0.01 0,0.02 0.1,0.02 0.1,0.02 0,0.03 0.1,0.02 0,0.03 0.1,0.04 0,0.04 0.1,0.04 0,0.04 0.1,0.05 0,0.03 0,0.03 0,0.03 0,0.03 0,0.03 0.1,0.03 0,0.03 0,0.04 0,0.03 0,0.04 0,0.04 0,0.04 0,0.04 0,0.04 0,0.05 0,0.04 c 0,1 -0.9,1 -1.6,1 h -29.9 c -0.7,0 -1.6,0 -1.6,-1 0,-0.98 0.9,-0.98 1.7,-0.98 z"
           id="path6846"
           inkscape:connector-curvature="0"
           style="fill:#000000;stroke-width:0" /><path
           d="m 1265.5,353.07 0,0 0.1,0 0.1,0 0.2,0 0.1,0.01 0,0 0.1,0.01 0.1,0.01 0,0.01 0.1,0.01 0.1,0.01 0,0.02 0.1,0.02 0.1,0.02 0,0.03 0.1,0.02 0,0.04 0.1,0.03 0,0.04 0.1,0.04 0,0.05 0,0.02 0.1,0.03 0,0.02 0,0.03 0,0.03 0,0.03 0,0.03 0.1,0.04 0,0.03 0,0.04 0,0.03 0,0.04 0,0.04 0,0.04 0,0.04 0,0.05 0,0.04 0,0.05 c 0,1 -0.9,1 -1.7,1 h -29.7 c -0.8,0 -1.7,0 -1.7,-1 0,-1 0.9,-1 1.6,-1 z"
           id="path6848"
           inkscape:connector-curvature="0"
           style="fill:#000000;stroke-width:0" /><path
           d="m 1306.7,362.38 0,0.75 0,0.74 -0.1,0.75 0,0.74 0,0.75 -0.1,0.74 -0.1,0.74 -0.1,0.73 -0.1,0.74 -0.1,0.72 -0.2,0.73 -0.2,0.71 -0.2,0.72 -0.2,0.7 -0.3,0.7 -0.2,0.35 -0.1,0.35 c -2.3,4.79 -6.4,5.59 -8.5,5.59 -3,0 -6.6,-1.3 -8.7,-5.94 -1.6,-3.44 -1.8,-7.33 -1.8,-11.31 0,-3.74 0.2,-8.22 2.2,-12 2.2,-4.03 5.8,-5.03 8.3,-5.03 v 1.09 c -2,0 -4.9,1.25 -5.8,6.03 -0.6,2.99 -0.6,7.57 -0.6,10.52 0,3.19 0,6.47 0.4,9.15 1,5.94 4.7,6.38 6,6.38 1.6,0 4.9,-0.89 5.8,-5.83 0.5,-2.78 0.5,-6.58 0.5,-9.7 0,-3.75 0,-7.13 -0.5,-10.31 -0.8,-4.74 -3.6,-6.24 -5.8,-6.24 h 0 v -1.09 c 2.6,0 6.4,1.04 8.6,5.78 1.6,3.44 1.9,7.31 1.9,11.25 z"
           id="path6850"
           inkscape:connector-curvature="0"
           style="fill:#000000;stroke-width:0" /></g>    </g>
    <g
       id="g6976"
       transform="matrix(0.50626024,0,0,0.50626024,-88.996462,633.86508)">
      <g
         word-spacing="normal"
         letter-spacing="normal"
         font-size-adjust="none"
         font-stretch="normal"
         font-weight="normal"
         font-variant="normal"
         font-style="normal"
         stroke-miterlimit="10.433"
         xml:space="preserve"
         transform="matrix(0.48593924,0,0,-0.48593924,-85.039367,340.15747)"
         id="g6978"
         style="font-style:normal;font-variant:normal;font-weight:normal;font-stretch:normal;letter-spacing:normal;word-spacing:normal;text-anchor:start;fill:none;stroke:#000000;stroke-linecap:butt;stroke-linejoin:miter;stroke-miterlimit:10.43299961;stroke-opacity:1;stroke-dasharray:none;stroke-dashoffset:0"><path
           id="path6980"
           d="m 1196.9,366.57 0,0.01 0,0.02 0,0.02 0,0.01 0,0.02 0,0.03 0,0.02 0,0.02 0,0.02 -0.1,0.03 0,0.02 0,0.03 0,0.05 0,0.05 0,0.05 -0.1,0.05 0,0.02 0,0.03 0,0.02 0,0.03 0,0.02 0,0.02 0,0.02 0,0.02 0,0.02 0,0.02 0,0.01 0,0.02 c 0,0.05 0.9,0.75 1.4,1.14 l 8.7,6.73 c 4.7,3.44 6.7,3.63 8.1,3.79 0.5,0.04 1,0.09 1,1 0,0.18 -0.2,0.54 -0.6,0.54 -1.1,0 -2.3,-0.15 -3.5,-0.15 -1.8,0 -3.8,0.15 -5.6,0.15 -0.3,0 -0.9,0 -0.9,-1 0,-0.34 0.2,-0.5 0.6,-0.54 1.1,-0.1 1.5,-0.35 1.5,-1.05 0,-0.89 -1.5,-2.05 -1.8,-2.3 l -19.4,-14.94 4,15.99 c 0.4,1.8 0.6,2.3 4.2,2.3 1.2,0 1.7,0 1.7,1 0,0.43 -0.4,0.54 -0.7,0.54 -1.4,0 -5,-0.15 -6.4,-0.15 -1.4,0 -5,0.15 -6.4,0.15 -0.4,0 -1,0 -1,-0.95 0,-0.59 0.4,-0.59 1.4,-0.59 0.7,0 1.6,-0.05 2.2,-0.1 0.7,-0.11 1.1,-0.25 1.1,-0.79 0,-0.21 -0.1,-0.36 -0.2,-0.96 l -6.7,-26.75 c -0.5,-1.95 -0.6,-2.34 -4.6,-2.34 -0.8,0 -1.4,0 -1.4,-0.95 0,-0.6 0.6,-0.6 0.8,-0.6 1.4,0 4.9,0.16 6.3,0.16 1.1,0 2.2,-0.06 3.2,-0.06 1.1,0 2.2,-0.1 3.2,-0.1 0.4,0 1,0 1,1 0,0.55 -0.4,0.55 -1.3,0.55 -1.9,0 -3.3,0 -3.3,0.89 0,0.36 0.3,1.45 0.5,2.2 0.7,2.58 1.3,5.22 2,7.81 l 7.4,5.79 5.8,-13.41 c 0.6,-1.34 0.6,-1.44 0.6,-1.73 0,-1.5 -2.2,-1.55 -2.6,-1.55 -0.6,0 -1.1,0 -1.1,-1 0,-0.55 0.6,-0.55 0.7,-0.55 2,0 4.1,0.16 6.1,0.16 1.1,0 3.7,-0.16 4.8,-0.16 0.3,0 0.9,0 0.9,1 0,0.55 -0.5,0.55 -1,0.55 -2,0.05 -2.6,0.5 -3.4,2.23 z"
           inkscape:connector-curvature="0"
           style="fill:#000000;stroke-width:0" /><path
           id="path6982"
           d="m 1265.4,362.74 0.2,0 0.1,0 0.2,0 0,0.01 0.1,0 0.1,0.01 0,0.01 0.1,0.01 0.1,0.01 0.1,0.01 0,0.02 0.1,0.02 0.1,0.02 0,0.03 0.1,0.02 0,0.03 0.1,0.04 0,0.04 0.1,0.04 0,0.04 0.1,0.05 0,0.03 0,0.03 0,0.03 0,0.03 0,0.03 0.1,0.03 0,0.03 0,0.04 0,0.03 0,0.04 0,0.04 0,0.04 0,0.04 0,0.04 0,0.05 0,0.04 c 0,1 -0.9,1 -1.6,1 h -29.9 c -0.7,0 -1.6,0 -1.6,-1 0,-0.98 0.9,-0.98 1.7,-0.98 z"
           inkscape:connector-curvature="0"
           style="fill:#000000;stroke-width:0" /><path
           id="path6984"
           d="m 1265.5,353.07 0,0 0.1,0 0.1,0 0.2,0 0.1,0.01 0,0 0.1,0.01 0.1,0.01 0,0.01 0.1,0.01 0.1,0.01 0,0.02 0.1,0.02 0.1,0.02 0,0.03 0.1,0.02 0,0.04 0.1,0.03 0,0.04 0.1,0.04 0,0.05 0,0.02 0.1,0.03 0,0.02 0,0.03 0,0.03 0,0.03 0,0.03 0.1,0.04 0,0.03 0,0.04 0,0.03 0,0.04 0,0.04 0,0.04 0,0.04 0,0.05 0,0.04 0,0.05 c 0,1 -0.9,1 -1.7,1 h -29.7 c -0.8,0 -1.7,0 -1.7,-1 0,-1 0.9,-1 1.6,-1 z"
           inkscape:connector-curvature="0"
           style="fill:#000000;stroke-width:0" /><path
           id="path6986"
           d="m 1298.4,378.33 0,0.06 0,0.05 0,0.05 0,0.05 0,0.05 0,0.05 0,0.04 0,0.05 0,0.04 0,0.04 0,0.04 0,0.04 0,0.04 0,0.04 0,0.03 0,0.04 0,0.06 0,0.06 0,0.05 -0.1,0.05 0,0.05 0,0.04 0,0.04 0,0.04 -0.1,0.03 0,0.03 0,0.02 -0.1,0.02 0,0.02 0,0.01 -0.1,0.01 0,0 0,0.01 -0.1,0.01 0,0 0,0.01 0,0 -0.1,0.01 0,0 0,0 -0.1,0.01 0,0 -0.1,0 0,0 0,0.01 -0.1,0 0,0 -0.1,0 0,0 -0.1,0 0,0 c -3.1,-3.19 -7.5,-3.19 -9.1,-3.19 v -1.55 c 1,0 3.9,0 6.5,1.3 v -25.81 c 0,-1.8 -0.1,-2.39 -4.6,-2.39 h -1.6 v -1.55 c 1.7,0.16 6.1,0.16 8.1,0.16 2,0 6.3,0 8,-0.16 v 1.55 h -1.6 c -4.4,0 -4.6,0.55 -4.6,2.39 z"
           inkscape:connector-curvature="0"
           style="fill:#000000;stroke-width:0" /></g>    </g>
    <g
       id="g7124"
       transform="matrix(0.50626024,0,0,0.50626024,67.056402,633.86508)">
      <g
         id="g7126"
         transform="matrix(0.48593924,0,0,-0.48593924,-85.039367,340.15747)"
         xml:space="preserve"
         stroke-miterlimit="10.433"
         font-style="normal"
         font-variant="normal"
         font-weight="normal"
         font-stretch="normal"
         font-size-adjust="none"
         letter-spacing="normal"
         word-spacing="normal"
         style="font-style:normal;font-variant:normal;font-weight:normal;font-stretch:normal;letter-spacing:normal;word-spacing:normal;text-anchor:start;fill:none;stroke:#000000;stroke-linecap:butt;stroke-linejoin:miter;stroke-miterlimit:10.43299961;stroke-opacity:1;stroke-dasharray:none;stroke-dashoffset:0"><path
           d="m 1196.9,366.57 0,0.01 0,0.02 0,0.02 0,0.01 0,0.02 0,0.03 0,0.02 0,0.02 0,0.02 -0.1,0.03 0,0.02 0,0.03 0,0.05 0,0.05 0,0.05 -0.1,0.05 0,0.02 0,0.03 0,0.02 0,0.03 0,0.02 0,0.02 0,0.02 0,0.02 0,0.02 0,0.02 0,0.01 0,0.02 c 0,0.05 0.9,0.75 1.4,1.14 l 8.7,6.73 c 4.7,3.44 6.7,3.63 8.1,3.79 0.5,0.04 1,0.09 1,1 0,0.18 -0.2,0.54 -0.6,0.54 -1.1,0 -2.3,-0.15 -3.5,-0.15 -1.8,0 -3.8,0.15 -5.6,0.15 -0.3,0 -0.9,0 -0.9,-1 0,-0.34 0.2,-0.5 0.6,-0.54 1.1,-0.1 1.5,-0.35 1.5,-1.05 0,-0.89 -1.5,-2.05 -1.8,-2.3 l -19.4,-14.94 4,15.99 c 0.4,1.8 0.6,2.3 4.2,2.3 1.2,0 1.7,0 1.7,1 0,0.43 -0.4,0.54 -0.7,0.54 -1.4,0 -5,-0.15 -6.4,-0.15 -1.4,0 -5,0.15 -6.4,0.15 -0.4,0 -1,0 -1,-0.95 0,-0.59 0.4,-0.59 1.4,-0.59 0.7,0 1.6,-0.05 2.2,-0.1 0.7,-0.11 1.1,-0.25 1.1,-0.79 0,-0.21 -0.1,-0.36 -0.2,-0.96 l -6.7,-26.75 c -0.5,-1.95 -0.6,-2.34 -4.6,-2.34 -0.8,0 -1.4,0 -1.4,-0.95 0,-0.6 0.6,-0.6 0.8,-0.6 1.4,0 4.9,0.16 6.3,0.16 1.1,0 2.2,-0.06 3.2,-0.06 1.1,0 2.2,-0.1 3.2,-0.1 0.4,0 1,0 1,1 0,0.55 -0.4,0.55 -1.3,0.55 -1.9,0 -3.3,0 -3.3,0.89 0,0.36 0.3,1.45 0.5,2.2 0.7,2.58 1.3,5.22 2,7.81 l 7.4,5.79 5.8,-13.41 c 0.6,-1.34 0.6,-1.44 0.6,-1.73 0,-1.5 -2.2,-1.55 -2.6,-1.55 -0.6,0 -1.1,0 -1.1,-1 0,-0.55 0.6,-0.55 0.7,-0.55 2,0 4.1,0.16 6.1,0.16 1.1,0 3.7,-0.16 4.8,-0.16 0.3,0 0.9,0 0.9,1 0,0.55 -0.5,0.55 -1,0.55 -2,0.05 -2.6,0.5 -3.4,2.23 z"
           id="path7128"
           inkscape:connector-curvature="0"
           style="fill:#000000;stroke-width:0" /><path
           d="m 1265.4,362.74 0.2,0 0.1,0 0.2,0 0,0.01 0.1,0 0.1,0.01 0,0.01 0.1,0.01 0.1,0.01 0.1,0.01 0,0.02 0.1,0.02 0.1,0.02 0,0.03 0.1,0.02 0,0.03 0.1,0.04 0,0.04 0.1,0.04 0,0.04 0.1,0.05 0,0.03 0,0.03 0,0.03 0,0.03 0,0.03 0.1,0.03 0,0.03 0,0.04 0,0.03 0,0.04 0,0.04 0,0.04 0,0.04 0,0.04 0,0.05 0,0.04 c 0,1 -0.9,1 -1.6,1 h -29.9 c -0.7,0 -1.6,0 -1.6,-1 0,-0.98 0.9,-0.98 1.7,-0.98 z"
           id="path7130"
           inkscape:connector-curvature="0"
           style="fill:#000000;stroke-width:0" /><path
           d="m 1265.5,353.07 0,0 0.1,0 0.1,0 0.2,0 0.1,0.01 0,0 0.1,0.01 0.1,0.01 0,0.01 0.1,0.01 0.1,0.01 0,0.02 0.1,0.02 0.1,0.02 0,0.03 0.1,0.02 0,0.04 0.1,0.03 0,0.04 0.1,0.04 0,0.05 0,0.02 0.1,0.03 0,0.02 0,0.03 0,0.03 0,0.03 0,0.03 0.1,0.04 0,0.03 0,0.04 0,0.03 0,0.04 0,0.04 0,0.04 0,0.04 0,0.05 0,0.04 0,0.05 c 0,1 -0.9,1 -1.7,1 h -29.7 c -0.8,0 -1.7,0 -1.7,-1 0,-1 0.9,-1 1.6,-1 z"
           id="path7132"
           inkscape:connector-curvature="0"
           style="fill:#000000;stroke-width:0" /><path
           d="m 1290.1,350.29 5.3,5.12 c 7.7,6.88 10.7,9.56 10.7,14.55 0,5.68 -4.4,9.67 -10.5,9.67 -5.7,0 -9.4,-4.59 -9.4,-9.03 0,-2.78 2.5,-2.78 2.7,-2.78 0.8,0 2.6,0.59 2.6,2.64 0,1.29 -0.9,2.59 -2.7,2.59 -0.4,0 -0.5,0 -0.6,-0.05 1.1,3.24 3.8,5.08 6.7,5.08 4.5,0 6.7,-4.04 6.7,-8.12 0,-3.99 -2.5,-7.92 -5.2,-11.02 l -9.6,-10.65 c -0.6,-0.55 -0.6,-0.65 -0.6,-1.85 h 18.5 l 1.4,8.67 h -1.2 c -0.3,-1.5 -0.6,-3.68 -1.1,-4.43 -0.4,-0.39 -3.6,-0.39 -4.7,-0.39 z"
           id="path7134"
           inkscape:connector-curvature="0"
           style="fill:#000000;stroke-width:0" /></g>    </g>
    <g
       id="g7284"
       transform="matrix(0.50626024,0,0,0.50626024,68.507871,785.43999)">
      <g
         word-spacing="normal"
         letter-spacing="normal"
         font-size-adjust="none"
         font-stretch="normal"
         font-weight="normal"
         font-variant="normal"
         font-style="normal"
         stroke-miterlimit="10.433"
         xml:space="preserve"
         transform="matrix(0.48593924,0,0,-0.48593924,-85.039367,340.15747)"
         id="g7286"
         style="font-style:normal;font-variant:normal;font-weight:normal;font-stretch:normal;letter-spacing:normal;word-spacing:normal;text-anchor:start;fill:none;stroke:#000000;stroke-linecap:butt;stroke-linejoin:miter;stroke-miterlimit:10.43299961;stroke-opacity:1;stroke-dasharray:none;stroke-dashoffset:0"><path
           id="path7288"
           d="m 1196.2,376.58 0,0.17 0.1,0.15 0,0.16 0.1,0.14 0,0.14 0,0.13 0.1,0.12 0.1,0.12 0,0.11 0.1,0.1 0,0.1 0.1,0.09 0.1,0.09 0.1,0.08 0.1,0.08 0.1,0.07 0.2,0.06 0.1,0.06 0.2,0.06 0.2,0.05 0.1,0.02 0.1,0.02 0.1,0.02 0.1,0.02 0.1,0.02 0.1,0.02 0.1,0.02 0.1,0.01 0.2,0.02 0.1,0.01 0.1,0.01 0.2,0.01 0.1,0.01 0.2,0.01 0.2,0.01 0.1,0.01 0.2,0.01 0.2,0 0.2,0.01 0.2,0 0.1,0 0.3,0 0.2,0.01 0.2,0 c 1.5,0 1.9,0 1.9,0.95 0,0.59 -0.6,0.59 -0.8,0.59 -1.7,0 -5.8,-0.15 -7.4,-0.15 -1.5,0 -5.1,0.15 -6.6,0.15 -0.4,0 -1,0 -1,-1 0,-0.54 0.5,-0.54 1.4,-0.54 0.1,0 1.1,0 1.9,-0.1 0.9,-0.11 1.4,-0.15 1.4,-0.79 0,-0.21 -0.1,-0.36 -0.2,-0.96 l -6.7,-26.75 c -0.5,-1.95 -0.6,-2.34 -4.6,-2.34 -0.8,0 -1.3,0 -1.3,-1 0,-0.55 0.4,-0.55 1.3,-0.55 h 23.1 c 1.2,0 1.3,0 1.6,0.85 l 3.9,10.76 c 0.2,0.55 0.2,0.64 0.2,0.7 0,0.19 -0.2,0.55 -0.6,0.55 -0.5,0 -0.5,-0.25 -0.8,-1.05 -1.8,-4.59 -3.9,-10.26 -12.6,-10.26 h -4.6 c -0.7,0 -0.8,0 -1.1,0.05 -0.5,0.04 -0.7,0.09 -0.7,0.5 0,0.14 0,0.25 0.3,1.14 z"
           inkscape:connector-curvature="0"
           style="fill:#000000;stroke-width:0" /><path
           id="path7290"
           d="m 1259.4,362.74 0.2,0 0.1,0 0.2,0 0,0.01 0.1,0 0.1,0.01 0,0.01 0.1,0.01 0.1,0.01 0.1,0.01 0,0.02 0.1,0.02 0,0.02 0.1,0.03 0.1,0.02 0,0.03 0.1,0.04 0,0.04 0.1,0.04 0,0.04 0.1,0.05 0,0.03 0,0.03 0,0.03 0,0.03 0,0.03 0.1,0.03 0,0.03 0,0.04 0,0.03 0,0.04 0,0.04 0,0.04 0,0.04 0,0.04 0,0.05 0,0.04 c 0,1 -0.9,1 -1.6,1 h -29.9 c -0.7,0 -1.6,0 -1.6,-1 0,-0.98 0.9,-0.98 1.7,-0.98 z"
           inkscape:connector-curvature="0"
           style="fill:#000000;stroke-width:0" /><path
           id="path7292"
           d="m 1259.5,353.07 0,0 0.1,0 0.1,0 0.2,0 0.1,0.01 0,0 0.1,0.01 0.1,0.01 0,0.01 0.1,0.01 0.1,0.01 0,0.02 0.1,0.02 0.1,0.02 0,0.03 0.1,0.02 0,0.04 0.1,0.03 0,0.04 0.1,0.04 0,0.05 0,0.02 0.1,0.03 0,0.02 0,0.03 0,0.03 0,0.03 0,0.03 0.1,0.04 0,0.03 0,0.04 0,0.03 0,0.04 0,0.04 0,0.04 0,0.04 0,0.05 0,0.04 0,0.05 c 0,1 -0.9,1 -1.7,1 h -29.7 c -0.8,0 -1.7,0 -1.7,-1 0,-1 0.9,-1 1.6,-1 z"
           inkscape:connector-curvature="0"
           style="fill:#000000;stroke-width:0" /><path
           id="path7294"
           d="m 1284.2,350.29 5.3,5.12 c 7.7,6.88 10.7,9.56 10.7,14.55 0,5.68 -4.4,9.67 -10.5,9.67 -5.6,0 -9.3,-4.59 -9.3,-9.03 0,-2.78 2.5,-2.78 2.6,-2.78 0.9,0 2.6,0.59 2.6,2.64 0,1.29 -0.9,2.59 -2.7,2.59 -0.3,0 -0.5,0 -0.6,-0.05 1.1,3.24 3.8,5.08 6.7,5.08 4.6,0 6.7,-4.04 6.7,-8.12 0,-3.99 -2.5,-7.92 -5.2,-11.02 l -9.6,-10.65 c -0.5,-0.55 -0.5,-0.65 -0.5,-1.85 h 18.4 l 1.4,8.67 h -1.2 c -0.2,-1.5 -0.6,-3.68 -1.1,-4.43 -0.3,-0.39 -3.6,-0.39 -4.7,-0.39 z"
           inkscape:connector-curvature="0"
           style="fill:#000000;stroke-width:0" /></g>    </g>
    <g
       id="g7456"
       transform="matrix(0.50626024,0,0,0.50626024,-89.033359,785.43999)">
      <g
         id="g7458"
         transform="matrix(0.48593924,0,0,-0.48593924,-85.039367,340.15747)"
         xml:space="preserve"
         stroke-miterlimit="10.433"
         font-style="normal"
         font-variant="normal"
         font-weight="normal"
         font-stretch="normal"
         font-size-adjust="none"
         letter-spacing="normal"
         word-spacing="normal"
         style="font-style:normal;font-variant:normal;font-weight:normal;font-stretch:normal;letter-spacing:normal;word-spacing:normal;text-anchor:start;fill:none;stroke:#000000;stroke-linecap:butt;stroke-linejoin:miter;stroke-miterlimit:10.43299961;stroke-opacity:1;stroke-dasharray:none;stroke-dashoffset:0"><path
           d="m 1196.2,376.58 0,0.17 0.1,0.15 0,0.16 0.1,0.14 0,0.14 0,0.13 0.1,0.12 0.1,0.12 0,0.11 0.1,0.1 0,0.1 0.1,0.09 0.1,0.09 0.1,0.08 0.1,0.08 0.1,0.07 0.2,0.06 0.1,0.06 0.2,0.06 0.2,0.05 0.1,0.02 0.1,0.02 0.1,0.02 0.1,0.02 0.1,0.02 0.1,0.02 0.1,0.02 0.1,0.01 0.2,0.02 0.1,0.01 0.1,0.01 0.2,0.01 0.1,0.01 0.2,0.01 0.2,0.01 0.1,0.01 0.2,0.01 0.2,0 0.2,0.01 0.2,0 0.1,0 0.3,0 0.2,0.01 0.2,0 c 1.5,0 1.9,0 1.9,0.95 0,0.59 -0.6,0.59 -0.8,0.59 -1.7,0 -5.8,-0.15 -7.4,-0.15 -1.5,0 -5.1,0.15 -6.6,0.15 -0.4,0 -1,0 -1,-1 0,-0.54 0.5,-0.54 1.4,-0.54 0.1,0 1.1,0 1.9,-0.1 0.9,-0.11 1.4,-0.15 1.4,-0.79 0,-0.21 -0.1,-0.36 -0.2,-0.96 l -6.7,-26.75 c -0.5,-1.95 -0.6,-2.34 -4.6,-2.34 -0.8,0 -1.3,0 -1.3,-1 0,-0.55 0.4,-0.55 1.3,-0.55 h 23.1 c 1.2,0 1.3,0 1.6,0.85 l 3.9,10.76 c 0.2,0.55 0.2,0.64 0.2,0.7 0,0.19 -0.2,0.55 -0.6,0.55 -0.5,0 -0.5,-0.25 -0.8,-1.05 -1.8,-4.59 -3.9,-10.26 -12.6,-10.26 h -4.6 c -0.7,0 -0.8,0 -1.1,0.05 -0.5,0.04 -0.7,0.09 -0.7,0.5 0,0.14 0,0.25 0.3,1.14 z"
           id="path7460"
           inkscape:connector-curvature="0"
           style="fill:#000000;stroke-width:0" /><path
           d="m 1259.4,362.74 0.2,0 0.1,0 0.2,0 0,0.01 0.1,0 0.1,0.01 0,0.01 0.1,0.01 0.1,0.01 0.1,0.01 0,0.02 0.1,0.02 0,0.02 0.1,0.03 0.1,0.02 0,0.03 0.1,0.04 0,0.04 0.1,0.04 0,0.04 0.1,0.05 0,0.03 0,0.03 0,0.03 0,0.03 0,0.03 0.1,0.03 0,0.03 0,0.04 0,0.03 0,0.04 0,0.04 0,0.04 0,0.04 0,0.04 0,0.05 0,0.04 c 0,1 -0.9,1 -1.6,1 h -29.9 c -0.7,0 -1.6,0 -1.6,-1 0,-0.98 0.9,-0.98 1.7,-0.98 z"
           id="path7462"
           inkscape:connector-curvature="0"
           style="fill:#000000;stroke-width:0" /><path
           d="m 1259.5,353.07 0,0 0.1,0 0.1,0 0.2,0 0.1,0.01 0,0 0.1,0.01 0.1,0.01 0,0.01 0.1,0.01 0.1,0.01 0,0.02 0.1,0.02 0.1,0.02 0,0.03 0.1,0.02 0,0.04 0.1,0.03 0,0.04 0.1,0.04 0,0.05 0,0.02 0.1,0.03 0,0.02 0,0.03 0,0.03 0,0.03 0,0.03 0.1,0.04 0,0.03 0,0.04 0,0.03 0,0.04 0,0.04 0,0.04 0,0.04 0,0.05 0,0.04 0,0.05 c 0,1 -0.9,1 -1.7,1 h -29.7 c -0.8,0 -1.7,0 -1.7,-1 0,-1 0.9,-1 1.6,-1 z"
           id="path7464"
           inkscape:connector-curvature="0"
           style="fill:#000000;stroke-width:0" /><path
           d="m 1292.5,378.33 0,0.06 0,0.05 0,0.05 0,0.05 0,0.05 0,0.05 0,0.04 0,0.05 0,0.04 0,0.04 0,0.04 0,0.04 0,0.04 0,0.04 0,0.03 0,0.04 0,0.06 0,0.06 0,0.05 0,0.05 -0.1,0.05 0,0.04 0,0.04 0,0.04 -0.1,0.03 0,0.03 0,0.02 -0.1,0.02 0,0.02 0,0.01 -0.1,0.01 0,0 0,0.01 0,0.01 -0.1,0 0,0.01 0,0 -0.1,0.01 0,0 0,0 -0.1,0.01 0,0 0,0 -0.1,0 0,0.01 -0.1,0 0,0 -0.1,0 0,0 -0.1,0 0,0 c -3.1,-3.19 -7.5,-3.19 -9.1,-3.19 v -1.55 c 1,0 3.9,0 6.5,1.3 v -25.81 c 0,-1.8 -0.1,-2.39 -4.6,-2.39 h -1.6 v -1.55 c 1.8,0.16 6.1,0.16 8.1,0.16 2,0 6.3,0 8.1,-0.16 v 1.55 h -1.6 c -4.5,0 -4.7,0.55 -4.7,2.39 z"
           id="path7466"
           inkscape:connector-curvature="0"
           style="fill:#000000;stroke-width:0" /></g>    </g>
    <g
       id="g7640"
       transform="matrix(0.50626024,0,0,0.50626024,-246.9928,785.17184)">
      <g
         word-spacing="normal"
         letter-spacing="normal"
         font-size-adjust="none"
         font-stretch="normal"
         font-weight="normal"
         font-variant="normal"
         font-style="normal"
         stroke-miterlimit="10.433"
         xml:space="preserve"
         transform="matrix(0.48593924,0,0,-0.48593924,-85.039367,340.15747)"
         id="g7642"
         style="font-style:normal;font-variant:normal;font-weight:normal;font-stretch:normal;letter-spacing:normal;word-spacing:normal;text-anchor:start;fill:none;stroke:#000000;stroke-linecap:butt;stroke-linejoin:miter;stroke-miterlimit:10.43299961;stroke-opacity:1;stroke-dasharray:none;stroke-dashoffset:0"><path
           id="path7644"
           d="m 1196.2,376.58 0,0.17 0.1,0.15 0,0.16 0.1,0.14 0,0.14 0,0.13 0.1,0.12 0.1,0.12 0,0.11 0.1,0.1 0,0.1 0.1,0.09 0.1,0.09 0.1,0.08 0.1,0.08 0.1,0.07 0.2,0.06 0.1,0.06 0.2,0.06 0.2,0.05 0.1,0.02 0.1,0.02 0.1,0.02 0.1,0.02 0.1,0.02 0.1,0.02 0.1,0.02 0.1,0.01 0.2,0.02 0.1,0.01 0.1,0.01 0.2,0.01 0.1,0.01 0.2,0.01 0.2,0.01 0.1,0.01 0.2,0.01 0.2,0 0.2,0.01 0.2,0 0.1,0 0.3,0 0.2,0.01 0.2,0 c 1.5,0 1.9,0 1.9,0.95 0,0.59 -0.6,0.59 -0.8,0.59 -1.7,0 -5.8,-0.15 -7.4,-0.15 -1.5,0 -5.1,0.15 -6.6,0.15 -0.4,0 -1,0 -1,-1 0,-0.54 0.5,-0.54 1.4,-0.54 0.1,0 1.1,0 1.9,-0.1 0.9,-0.11 1.4,-0.15 1.4,-0.79 0,-0.21 -0.1,-0.36 -0.2,-0.96 l -6.7,-26.75 c -0.5,-1.95 -0.6,-2.34 -4.6,-2.34 -0.8,0 -1.3,0 -1.3,-1 0,-0.55 0.4,-0.55 1.3,-0.55 h 23.1 c 1.2,0 1.3,0 1.6,0.85 l 3.9,10.76 c 0.2,0.55 0.2,0.64 0.2,0.7 0,0.19 -0.2,0.55 -0.6,0.55 -0.5,0 -0.5,-0.25 -0.8,-1.05 -1.8,-4.59 -3.9,-10.26 -12.6,-10.26 h -4.6 c -0.7,0 -0.8,0 -1.1,0.05 -0.5,0.04 -0.7,0.09 -0.7,0.5 0,0.14 0,0.25 0.3,1.14 z"
           inkscape:connector-curvature="0"
           style="fill:#000000;stroke-width:0" /><path
           id="path7646"
           d="m 1259.4,362.74 0.2,0 0.1,0 0.2,0 0,0.01 0.1,0 0.1,0.01 0,0.01 0.1,0.01 0.1,0.01 0.1,0.01 0,0.02 0.1,0.02 0,0.02 0.1,0.03 0.1,0.02 0,0.03 0.1,0.04 0,0.04 0.1,0.04 0,0.04 0.1,0.05 0,0.03 0,0.03 0,0.03 0,0.03 0,0.03 0.1,0.03 0,0.03 0,0.04 0,0.03 0,0.04 0,0.04 0,0.04 0,0.04 0,0.04 0,0.05 0,0.04 c 0,1 -0.9,1 -1.6,1 h -29.9 c -0.7,0 -1.6,0 -1.6,-1 0,-0.98 0.9,-0.98 1.7,-0.98 z"
           inkscape:connector-curvature="0"
           style="fill:#000000;stroke-width:0" /><path
           id="path7648"
           d="m 1259.5,353.07 0,0 0.1,0 0.1,0 0.2,0 0.1,0.01 0,0 0.1,0.01 0.1,0.01 0,0.01 0.1,0.01 0.1,0.01 0,0.02 0.1,0.02 0.1,0.02 0,0.03 0.1,0.02 0,0.04 0.1,0.03 0,0.04 0.1,0.04 0,0.05 0,0.02 0.1,0.03 0,0.02 0,0.03 0,0.03 0,0.03 0,0.03 0.1,0.04 0,0.03 0,0.04 0,0.03 0,0.04 0,0.04 0,0.04 0,0.04 0,0.05 0,0.04 0,0.05 c 0,1 -0.9,1 -1.7,1 h -29.7 c -0.8,0 -1.7,0 -1.7,-1 0,-1 0.9,-1 1.6,-1 z"
           inkscape:connector-curvature="0"
           style="fill:#000000;stroke-width:0" /><path
           id="path7650"
           d="m 1300.8,362.38 0,0.75 0,0.74 0,0.75 -0.1,0.74 0,0.75 -0.1,0.74 0,0.74 -0.1,0.73 -0.2,0.74 -0.1,0.72 -0.2,0.73 -0.1,0.71 -0.3,0.72 -0.2,0.7 -0.3,0.7 -0.1,0.35 -0.2,0.35 c -2.3,4.79 -6.4,5.59 -8.5,5.59 -3,0 -6.6,-1.3 -8.6,-5.94 -1.6,-3.44 -1.9,-7.33 -1.9,-11.31 0,-3.74 0.2,-8.22 2.3,-12 2.1,-4.03 5.7,-5.03 8.2,-5.03 v 1.09 c -2,0 -4.9,1.25 -5.8,6.03 -0.6,2.99 -0.6,7.57 -0.6,10.52 0,3.19 0,6.47 0.5,9.15 0.9,5.94 4.6,6.38 5.9,6.38 1.6,0 4.9,-0.89 5.9,-5.83 0.5,-2.78 0.5,-6.58 0.5,-9.7 0,-3.75 0,-7.13 -0.6,-10.31 -0.7,-4.74 -3.6,-6.24 -5.8,-6.24 h 0 v -1.09 c 2.7,0 6.5,1.04 8.6,5.78 1.7,3.44 1.9,7.31 1.9,11.25 z"
           inkscape:connector-curvature="0"
           style="fill:#000000;stroke-width:0" /></g>    </g>
    <g
       id="g3163"
       transform="matrix(1.0127376,0,0,1.0127376,-290.54038,504.55998)">
      <g
         id="g3165"
         transform="matrix(0.22887834,0,0,-0.22887834,-40.05371,328.21985)"
         xml:space="preserve"
         stroke-miterlimit="10.433"
         font-style="normal"
         font-variant="normal"
         font-weight="normal"
         font-stretch="normal"
         font-size-adjust="none"
         letter-spacing="normal"
         word-spacing="normal"
         style="font-style:normal;font-variant:normal;font-weight:normal;font-stretch:normal;letter-spacing:normal;word-spacing:normal;text-anchor:start;fill:none;stroke:#000000;stroke-linecap:butt;stroke-linejoin:miter;stroke-miterlimit:10.43299961;stroke-opacity:1;stroke-dasharray:none;stroke-dashoffset:0"><path
           d="m 1218.9,367.91 0,0.02 0,0.02 0,0.02 0,0.02 0,0.02 0,0.02 0,0.02 0,0.02 0,0.02 0,0.03 0,0.02 -0.1,0.02 0,0.02 0,0.02 0,0.02 0,0.02 0,0.01 0,0.02 -0.1,0.02 0,0.02 0,0.01 0,0.01 0,0.02 -0.1,0.01 0,0.01 0,0.01 0,0.01 -0.1,0.01 0,0 0,0.01 -0.1,0 0,0 0,0 c -0.5,0 -2.5,-1.98 -3.4,-3.44 -1.1,2.69 -3,3.49 -4.6,3.49 v -1.1 c 3.2,0 3.9,-4.03 3.9,-4.37 0,-0.31 -2.7,-11.22 -2.9,-11.42 -0.7,-1.39 -3.5,-4.58 -6.3,-4.58 h 0 c -3,0 -3.2,3.84 -3.2,4.69 0,2.39 1.5,7.81 2.3,9.9 1.6,3.69 4.1,5.78 6.2,5.78 v 1.1 c -5.9,0 -12,-7.38 -12,-14.6 0,-4.87 2.9,-7.97 6.6,-7.97 2.1,0 4.1,1.19 5.8,2.99 -0.4,-1.74 -2,-8.47 -2.2,-8.92 -0.4,-1.39 -0.8,-1.6 -3.6,-1.64 -0.6,0 -1.1,0 -1.1,-1 0,-0.05 0,-0.55 0.6,-0.55 1.6,0 3.3,0.16 5,0.16 1.7,0 3.5,-0.16 5.1,-0.16 0.3,0 0.9,0 0.9,1 0,0.55 -0.5,0.55 -1.3,0.55 -2.4,0 -2.4,0.36 -2.4,0.79 0,0.36 0.1,0.66 0.2,1.1 z"
           id="path3167"
           inkscape:connector-curvature="0"
           style="fill:#000000;stroke-width:0" /><path
           d="m 1236.9,334.49 0,0.02 0,0.03 0,0.01 0,0.02 0,0.01 0,0.02 0,0.02 0,0.01 -0.1,0.02 0,0.02 0,0.03 0,0.02 0,0.02 0,0.03 0,0.03 -0.1,0.03 0,0.04 0,0.03 0,0.02 -0.1,0.02 0,0.02 0,0.02 0,0.02 0,0.03 -0.1,0.02 0,0.02 0,0.03 0,0.03 0,0.02 -0.1,0.03 0,0.03 0,0.03 -0.1,0.03 0,0.03 0,0.03 0,0.03 -0.1,0.04 0,0.03 0,0.04 -0.1,0.04 0,0.03 -0.1,0.04 c -6.2,6.28 -7.8,15.69 -7.8,23.31 0,8.68 1.9,17.35 8,23.57 0.7,0.61 0.7,0.7 0.7,0.86 0,0.34 -0.2,0.48 -0.5,0.48 -0.5,0 -5,-3.37 -7.9,-9.7 -2.6,-5.49 -3.2,-11.02 -3.2,-15.21 0,-3.89 0.6,-9.9 3.3,-15.54 3,-6.13 7.3,-9.36 7.8,-9.36 0.3,0 0.5,0.14 0.5,0.5 z"
           id="path3169"
           inkscape:connector-curvature="0"
           style="fill:#000000;stroke-width:0" /><path
           d="m 1262.4,371.35 0,0.32 0,0.34 0,0.35 -0.1,0.37 0,0.39 0,0.4 -0.1,0.4 0,0.42 -0.1,0.42 -0.1,0.42 -0.1,0.42 -0.1,0.43 -0.1,0.42 -0.1,0.42 -0.1,0.42 -0.2,0.4 -0.2,0.4 -0.2,0.38 -0.2,0.38 -0.2,0.35 -0.2,0.34 -0.3,0.32 -0.2,0.3 -0.3,0.27 -0.3,0.25 -0.2,0.12 -0.2,0.11 -0.1,0.1 -0.2,0.09 -0.2,0.08 -0.2,0.08 -0.2,0.07 -0.2,0.06 -0.2,0.05 -0.2,0.05 -0.2,0.03 -0.2,0.03 -0.3,0.01 -0.2,0.01 0,-1.1 c 2.4,0 2.7,-3.18 2.7,-6.03 0,-2.44 -0.4,-4.98 -1.6,-9.92 h -10.4 c 0.8,3.2 1.8,7.19 3.8,10.72 1.4,2.44 3.2,5.23 5.5,5.23 l 0,1.1 c -6.9,0 -14.6,-14.05 -14.6,-25.46 0,-4.68 1.4,-10.22 6,-10.22 v 1.1 c -1.7,0 -2.7,1.45 -2.7,6.08 0,2.09 0.3,4.98 1.6,9.86 h 10.4 c -0.6,-2.29 -1.6,-6.52 -3.5,-10.11 -1.8,-3.39 -3.7,-5.83 -5.8,-5.83 v -1.1 c 7,0 14.6,14.3 14.6,25.46 z"
           id="path3171"
           inkscape:connector-curvature="0"
           style="fill:#000000;stroke-width:0" /><path
           d="m 1278.9,358.89 0,0.38 0,0.38 0,0.39 0,0.41 0,0.84 -0.1,0.88 -0.1,0.92 -0.1,0.95 -0.1,0.98 -0.2,1 -0.2,1.02 -0.2,1.04 -0.3,1.05 -0.3,1.06 -0.3,1.06 -0.4,1.07 -0.2,0.53 -0.3,0.53 -0.2,0.53 -0.2,0.53 c -3,6.13 -7.3,9.36 -7.8,9.36 -0.3,0 -0.5,-0.19 -0.5,-0.48 0,-0.16 0,-0.25 0.9,-1.16 4.9,-4.92 7.8,-12.84 7.8,-23.27 0,-8.51 -1.9,-17.28 -8.1,-23.56 -0.6,-0.59 -0.6,-0.7 -0.6,-0.84 0,-0.3 0.2,-0.5 0.5,-0.5 0.5,0 5,3.39 7.9,9.72 2.5,5.47 3.1,11 3.1,15.18 z"
           id="path3173"
           inkscape:connector-curvature="0"
           style="fill:#000000;stroke-width:0" /></g>    </g>
    <g
       id="g3371"
       transform="matrix(1.0127376,0,0,1.0127376,-290.98591,576.79297)">
      <g
         word-spacing="normal"
         letter-spacing="normal"
         font-size-adjust="none"
         font-stretch="normal"
         font-weight="normal"
         font-variant="normal"
         font-style="normal"
         stroke-miterlimit="10.433"
         xml:space="preserve"
         transform="matrix(0.22887834,0,0,-0.22887834,-40.05371,328.21985)"
         id="g3373"
         style="font-style:normal;font-variant:normal;font-weight:normal;font-stretch:normal;letter-spacing:normal;word-spacing:normal;text-anchor:start;fill:none;stroke:#000000;stroke-linecap:butt;stroke-linejoin:miter;stroke-miterlimit:10.43299961;stroke-opacity:1;stroke-dasharray:none;stroke-dashoffset:0"><path
           id="path3375"
           d="m 1216.1,365.08 -0.1,-0.01 -0.1,-0.01 -0.2,-0.02 -0.1,-0.03 -0.1,-0.03 -0.1,-0.03 -0.1,-0.05 -0.1,-0.04 -0.2,-0.05 -0.1,-0.06 -0.1,-0.06 -0.1,-0.06 0,-0.07 -0.1,-0.07 -0.1,-0.07 -0.1,-0.08 -0.1,-0.08 -0.1,-0.08 0,-0.08 -0.1,-0.09 0,-0.09 -0.1,-0.09 0,-0.1 -0.1,-0.09 0,-0.1 -0.1,-0.1 0,-0.1 0,-0.1 0,-0.1 -0.1,-0.1 0,-0.11 0,-0.1 c 0,-0.7 0.5,-1.44 1.6,-1.44 1.1,0 2.3,0.85 2.3,2.79 0,2.25 -2.2,4.28 -6,4.28 -6.5,0 -8.4,-5.08 -8.4,-7.27 0,-3.89 3.7,-4.64 5.1,-4.94 2.6,-0.5 5.2,-1.04 5.2,-3.78 0,-1.29 -1.1,-5.48 -7.1,-5.48 -0.7,0 -4.5,0 -5.7,2.64 1.9,-0.25 3.2,1.25 3.2,2.64 0,1.14 -0.8,1.75 -1.9,1.75 -1.3,0 -2.8,-1.05 -2.8,-3.3 0,-2.84 2.9,-4.83 7.2,-4.83 8,0 10,6.04 10,8.27 0,1.8 -1,3.05 -1.6,3.64 -1.3,1.39 -2.8,1.64 -5,2.09 -1.7,0.4 -3.7,0.75 -3.7,2.99 0,1.45 1.1,4.48 5.5,4.48 1.3,0 3.8,-0.34 4.5,-2.28 z"
           inkscape:connector-curvature="0"
           style="fill:#000000;stroke-width:0" /><path
           id="path3377"
           d="m 1236.5,334.49 0,0.02 0,0.03 0,0.01 0,0.02 0,0.01 0,0.02 0,0.02 0,0.01 0,0.02 0,0.02 0,0.03 -0.1,0.02 0,0.02 0,0.03 0,0.03 0,0.03 -0.1,0.04 0,0.03 0,0.02 0,0.02 0,0.02 -0.1,0.02 0,0.02 0,0.03 0,0.02 0,0.02 -0.1,0.03 0,0.03 0,0.02 0,0.03 -0.1,0.03 0,0.03 0,0.03 0,0.03 -0.1,0.03 0,0.03 0,0.04 -0.1,0.03 0,0.04 0,0.04 -0.1,0.03 0,0.04 c -6.2,6.28 -7.8,15.69 -7.8,23.31 0,8.68 1.9,17.35 8,23.57 0.6,0.61 0.6,0.7 0.6,0.86 0,0.34 -0.2,0.48 -0.5,0.48 -0.5,0 -4.9,-3.37 -7.9,-9.7 -2.5,-5.49 -3.1,-11.02 -3.1,-15.21 0,-3.89 0.5,-9.9 3.3,-15.54 2.9,-6.13 7.2,-9.36 7.7,-9.36 0.3,0 0.5,0.14 0.5,0.5 z"
           inkscape:connector-curvature="0"
           style="fill:#000000;stroke-width:0" /><path
           id="path3379"
           d="m 1262,371.35 0,0.32 0,0.34 0,0.35 0,0.37 0,0.39 -0.1,0.4 0,0.4 -0.1,0.42 -0.1,0.42 0,0.42 -0.1,0.42 -0.1,0.43 -0.1,0.42 -0.2,0.42 -0.1,0.42 -0.2,0.4 -0.1,0.4 -0.2,0.38 -0.2,0.38 -0.2,0.35 -0.3,0.34 -0.2,0.32 -0.3,0.3 -0.3,0.27 -0.3,0.25 -0.2,0.12 -0.1,0.11 -0.2,0.1 -0.2,0.09 -0.2,0.08 -0.1,0.08 -0.2,0.07 -0.2,0.06 -0.2,0.05 -0.3,0.05 -0.2,0.03 -0.2,0.03 -0.2,0.01 -0.3,0.01 0,-1.1 c 2.4,0 2.7,-3.18 2.7,-6.03 0,-2.44 -0.4,-4.98 -1.6,-9.92 h -10.4 c 0.9,3.2 1.9,7.19 3.9,10.72 1.3,2.44 3.2,5.23 5.4,5.23 l 0,1.1 c -6.9,0 -14.6,-14.05 -14.6,-25.46 0,-4.68 1.5,-10.22 6,-10.22 v 1.1 c -1.6,0 -2.7,1.45 -2.7,6.08 0,2.09 0.3,4.98 1.6,9.86 h 10.4 c -0.5,-2.29 -1.6,-6.52 -3.5,-10.11 -1.7,-3.39 -3.6,-5.83 -5.8,-5.83 v -1.1 c 7,0 14.6,14.3 14.6,25.46 z"
           inkscape:connector-curvature="0"
           style="fill:#000000;stroke-width:0" /><path
           id="path3381"
           d="m 1278.6,358.89 0,0.38 0,0.38 0,0.39 0,0.41 -0.1,0.84 0,0.88 -0.1,0.92 -0.1,0.95 -0.2,0.98 -0.1,1 -0.2,1.02 -0.3,1.04 -0.2,1.05 -0.3,1.06 -0.4,1.06 -0.4,1.07 -0.2,0.53 -0.2,0.53 -0.2,0.53 -0.3,0.53 c -3,6.13 -7.3,9.36 -7.8,9.36 -0.3,0 -0.5,-0.19 -0.5,-0.48 0,-0.16 0,-0.25 1,-1.16 4.9,-4.92 7.7,-12.84 7.7,-23.27 0,-8.51 -1.8,-17.28 -8,-23.56 -0.7,-0.59 -0.7,-0.7 -0.7,-0.84 0,-0.3 0.2,-0.5 0.5,-0.5 0.5,0 5,3.39 8,9.72 2.5,5.47 3.1,11 3.1,15.18 z"
           inkscape:connector-curvature="0"
           style="fill:#000000;stroke-width:0" /></g>    </g>
  </g>
</svg>
