<?xml version="1.0" encoding="UTF-8" standalone="no"?>
<!-- Created with Inkscape (http://www.inkscape.org/) -->

<svg
   xmlns:dc="http://purl.org/dc/elements/1.1/"
   xmlns:cc="http://creativecommons.org/ns#"
   xmlns:rdf="http://www.w3.org/1999/02/22-rdf-syntax-ns#"
   xmlns:svg="http://www.w3.org/2000/svg"
   xmlns="http://www.w3.org/2000/svg"
   xmlns:sodipodi="http://sodipodi.sourceforge.net/DTD/sodipodi-0.dtd"
   xmlns:inkscape="http://www.inkscape.org/namespaces/inkscape"
   width="450.80136"
   height="298.43307"
   id="svg2"
   sodipodi:version="0.32"
   inkscape:version="0.48.4 r9939"
   sodipodi:docname="New document 2"
   version="1.0">
  <sodipodi:namedview
     id="base"
     pagecolor="#ffffff"
     bordercolor="#666666"
     borderopacity="1.0"
     inkscape:pageopacity="0.0"
     inkscape:pageshadow="2"
     inkscape:zoom="1.540463"
     inkscape:cx="224.76044"
     inkscape:cy="195.61744"
     inkscape:document-units="mm"
     inkscape:current-layer="layer1"
     inkscape:window-width="1443"
     inkscape:window-height="831"
     inkscape:window-x="33"
     inkscape:window-y="22"
     width="12.8cm"
     height="9.6cm"
     units="cm"
     showgrid="false"
     grid_units="mm"
     inkscape:object-paths="false"
     inkscape:grid-points="true"
     inkscape:grid-bbox="true"
     inkscape:guide-points="true"
     showguides="false"
     inkscape:guide-bbox="true"
     inkscape:window-maximized="0"
     fit-margin-top="0"
     fit-margin-left="0"
     fit-margin-right="0"
     fit-margin-bottom="0">
    <sodipodi:guide
       orientation="vertical"
       position="107.26189,8.3015354"
       id="guide3573" />
    <sodipodi:guide
       orientation="horizontal"
       position="50.785363,8.3015354"
       id="guide3579" />
    <sodipodi:guide
       orientation="horizontal"
       position="43.698749,79.167677"
       id="guide3886" />
    <sodipodi:guide
       orientation="horizontal"
       position="50.785363,150.03382"
       id="guide3988" />
    <sodipodi:guide
       orientation="horizontal"
       position="50.785363,291.76611"
       id="guide4081" />
    <inkscape:grid
       id="GridFromPre046Settings"
       type="xygrid"
       originx="14.332758mm"
       originy="2.3428778mm"
       spacingx="2mm"
       spacingy="2mm"
       color="#3f3fff"
       empcolor="#3f3fff"
       opacity="0.15"
       empopacity="0.38"
       empspacing="5"
       units="mm"
       visible="true"
       enabled="true"
       snapvisiblegridlinesonly="true" />
  </sodipodi:namedview>
  <defs
     id="defs4" />
  <metadata
     id="metadata7">
    <rdf:RDF>
      <cc:Work
         rdf:about="">
        <dc:format>image/svg+xml</dc:format>
        <dc:type
           rdf:resource="http://purl.org/dc/dcmitype/StillImage" />
        <dc:title></dc:title>
      </cc:Work>
    </rdf:RDF>
  </metadata>
  <g
     inkscape:label="Layer 1"
     inkscape:groupmode="layer"
     id="layer1"
     transform="translate(50.785367,-748.05743)">
    <path
       style="fill:none;stroke:#000000;stroke-width:1px;stroke-linecap:butt;stroke-linejoin:miter;stroke-opacity:1"
       d="m 212.59843,56.692901 0,141.732289"
       id="path2995"
       inkscape:connector-curvature="0"
       transform="translate(-4.149475e-6,698.0315)" />
    <path
       style="fill:none;stroke:#000000;stroke-width:1px;stroke-linecap:butt;stroke-linejoin:miter;stroke-opacity:1"
       d="m 141.73228,198.42519 141.73229,0"
       id="path3001"
       inkscape:connector-curvature="0"
       transform="translate(-4.149475e-6,698.0315)" />
    <path
       style="fill:none;stroke:#000000;stroke-width:1px;stroke-linecap:butt;stroke-linejoin:miter;stroke-opacity:1"
       d="m 141.73228,269.29133 0,-70.86614"
       id="path3003"
       inkscape:connector-curvature="0"
       transform="translate(-4.149475e-6,698.0315)" />
    <path
       style="fill:none;stroke:#000000;stroke-width:1px;stroke-linecap:butt;stroke-linejoin:miter;stroke-opacity:1"
       d="m 106.29921,269.29133 70.86614,0"
       id="path3005"
       inkscape:connector-curvature="0"
       transform="translate(-4.149475e-6,698.0315)" />
    <path
       style="fill:none;stroke:#000000;stroke-width:1px;stroke-linecap:butt;stroke-linejoin:miter;stroke-opacity:1"
       d="m 283.46457,198.42519 0,141.73228"
       id="path3007"
       inkscape:connector-curvature="0"
       transform="translate(-4.149475e-6,698.0315)" />
    <path
       style="fill:none;stroke:#000000;stroke-width:1px;stroke-linecap:butt;stroke-linejoin:miter;stroke-opacity:1"
       d="m 106.29921,269.29133 0,70.86614"
       id="path3009"
       inkscape:connector-curvature="0"
       transform="translate(-4.149475e-6,698.0315)" />
    <path
       style="fill:none;stroke:#000000;stroke-width:1px;stroke-linecap:butt;stroke-linejoin:miter;stroke-opacity:1"
       d="m 177.16535,269.29133 0,70.86614"
       id="path3011"
       inkscape:connector-curvature="0"
       transform="translate(-4.149475e-6,698.0315)" />
    <path
       sodipodi:type="arc"
       style="fill:#5599ff;fill-opacity:1;stroke:#808080;stroke-width:1;stroke-miterlimit:4;stroke-opacity:0;stroke-dasharray:3, 3;stroke-dashoffset:0"
       id="path3013"
       sodipodi:cx="148.81889"
       sodipodi:cy="106.2992"
       sodipodi:rx="7.0866141"
       sodipodi:ry="7.0866141"
       d="m 155.90551,106.2992 c 0,3.91383 -3.17279,7.08662 -7.08662,7.08662 -3.91383,0 -7.08661,-3.17279 -7.08661,-7.08662 0,-3.91383 3.17278,-7.086612 7.08661,-7.086612 3.91383,0 7.08662,3.172782 7.08662,7.086612 z"
       transform="translate(63.779532,649.34484)" />
    <path
       sodipodi:type="arc"
       style="fill:#5599ff;fill-opacity:1;stroke:#808080;stroke-width:1;stroke-miterlimit:4;stroke-opacity:0;stroke-dasharray:3, 3;stroke-dashoffset:0"
       id="path3013-7"
       sodipodi:cx="148.81889"
       sodipodi:cy="106.2992"
       sodipodi:rx="7.0866141"
       sodipodi:ry="7.0866141"
       d="m 155.90551,106.2992 c 0,3.91383 -3.17279,7.08662 -7.08662,7.08662 -3.91383,0 -7.08661,-3.17279 -7.08661,-7.08662 0,-3.91383 3.17278,-7.086612 7.08661,-7.086612 3.91383,0 7.08662,3.172782 7.08662,7.086612 z"
       transform="translate(63.779532,790.95114)" />
    <path
       sodipodi:type="arc"
       style="fill:#5599ff;fill-opacity:1;stroke:#808080;stroke-width:1;stroke-miterlimit:4;stroke-opacity:0;stroke-dasharray:3, 3;stroke-dashoffset:0"
       id="path3013-0"
       sodipodi:cx="148.81889"
       sodipodi:cy="106.2992"
       sodipodi:rx="7.0866141"
       sodipodi:ry="7.0866141"
       d="m 155.90551,106.2992 c 0,3.91383 -3.17279,7.08662 -7.08662,7.08662 -3.91383,0 -7.08661,-3.17279 -7.08661,-7.08662 0,-3.91383 3.17278,-7.086612 7.08661,-7.086612 3.91383,0 7.08662,3.172782 7.08662,7.086612 z"
       transform="translate(-7.0866176,861.47083)" />
    <path
       sodipodi:type="arc"
       style="fill:#5599ff;fill-opacity:1;stroke:#808080;stroke-width:1;stroke-miterlimit:4;stroke-opacity:0;stroke-dasharray:3, 3;stroke-dashoffset:0"
       id="path3013-0-9"
       sodipodi:cx="148.81889"
       sodipodi:cy="106.2992"
       sodipodi:rx="7.0866141"
       sodipodi:ry="7.0866141"
       d="m 155.90551,106.2992 c 0,3.91383 -3.17279,7.08662 -7.08662,7.08662 -3.91383,0 -7.08661,-3.17279 -7.08661,-7.08662 0,-3.91383 3.17278,-7.086612 7.08661,-7.086612 3.91383,0 7.08662,3.172782 7.08662,7.086612 z"
       transform="translate(-42.519688,932.60469)" />
    <path
       sodipodi:type="arc"
       style="fill:#5599ff;fill-opacity:1;stroke:#808080;stroke-width:1;stroke-miterlimit:4;stroke-opacity:0;stroke-dasharray:3, 3;stroke-dashoffset:0"
       id="path3013-0-9-1"
       sodipodi:cx="148.81889"
       sodipodi:cy="106.2992"
       sodipodi:rx="7.0866141"
       sodipodi:ry="7.0866141"
       d="m 155.90551,106.2992 c 0,3.91383 -3.17279,7.08662 -7.08662,7.08662 -3.91383,0 -7.08661,-3.17279 -7.08661,-7.08662 0,-3.91383 3.17278,-7.086612 7.08661,-7.086612 3.91383,0 7.08662,3.172782 7.08662,7.086612 z"
       transform="translate(28.346452,932.60469)" />
    <path
       sodipodi:type="arc"
       style="fill:#5599ff;fill-opacity:1;stroke:#808080;stroke-width:1;stroke-miterlimit:4;stroke-opacity:0;stroke-dasharray:3, 3;stroke-dashoffset:0"
       id="path3013-0-9-1-2"
       sodipodi:cx="148.81889"
       sodipodi:cy="106.2992"
       sodipodi:rx="7.0866141"
       sodipodi:ry="7.0866141"
       d="m 155.90551,106.2992 c 0,3.91383 -3.17279,7.08662 -7.08662,7.08662 -3.91383,0 -7.08661,-3.17279 -7.08661,-7.08662 0,-3.91383 3.17278,-7.086612 7.08661,-7.086612 3.91383,0 7.08662,3.172782 7.08662,7.086612 z"
       transform="translate(134.64567,932.60469)" />
    <g
       transform="translate(-148.59941,660.74035)"
       id="g3118">
      <g
         style="font-style:normal;font-variant:normal;font-weight:normal;font-stretch:normal;letter-spacing:normal;word-spacing:normal;text-anchor:start;fill:none;stroke:#000000;stroke-linecap:butt;stroke-linejoin:miter;stroke-miterlimit:10.43299961;stroke-opacity:1;stroke-dasharray:none;stroke-dashoffset:0"
         id="content"
         transform="matrix(0.48593924,0,0,-0.48593924,-85.039367,340.15747)"
         xml:space="preserve"
         stroke-miterlimit="10.433"
         font-style="normal"
         font-variant="normal"
         font-weight="normal"
         font-stretch="normal"
         font-size-adjust="none"
         letter-spacing="normal"
         word-spacing="normal"><path
           style="fill:#000000;stroke-width:0"
           inkscape:connector-curvature="0"
           d="m 1227.8,359.1 0.1,0.26 0.1,0.26 0.1,0.25 0.2,0.24 0.1,0.23 0.1,0.23 0.1,0.21 0.1,0.21 0.2,0.21 0.1,0.19 0.1,0.19 0.2,0.18 0.2,0.34 0.3,0.32 0.3,0.29 0.3,0.27 0.3,0.24 0.4,0.23 0.3,0.2 0.3,0.18 0.3,0.16 0.3,0.15 0.3,0.13 0.3,0.11 0.3,0.1 0.3,0.08 0.3,0.07 0.3,0.06 0.2,0.05 0.3,0.04 0.2,0.03 0.2,0.03 0.2,0.01 0.2,0.02 0.1,0 0.1,0.01 0.1,0 0.1,0 c 7.5,0 8,-8.72 8,-12.66 0,-3.04 -0.2,-3.89 -0.6,-4.89 -1.1,-3.62 -2.6,-9.4 -2.6,-10.7 0,-0.55 0.3,-0.91 0.7,-0.91 0.6,0 1,1.11 1.6,3 1.1,4.19 1.6,7.02 1.8,8.57 0.1,0.65 0.2,1.29 0.4,1.95 1.6,4.92 4.8,12.34 6.8,16.28 0.3,0.59 0.9,1.7 0.9,1.89 0,0.5 -0.4,0.5 -0.6,0.5 -0.1,0 -0.4,0 -0.5,-0.34 -2.6,-4.74 -4.6,-9.72 -6.6,-14.75 -0.1,1.54 -0.1,5.32 -2.1,10.17 -1.2,3.03 -3.2,5.47 -6.6,5.47 -6.2,0 -9.7,-7.57 -9.7,-9.11 0,-0.5 0.4,-0.5 0.9,-0.5 z"
           id="path3121" /></g>    </g>
    <g
       transform="translate(-524.62472,766.39467)"
       id="g3175">
      <g
         style="font-style:normal;font-variant:normal;font-weight:normal;font-stretch:normal;letter-spacing:normal;word-spacing:normal;text-anchor:start;fill:none;stroke:#000000;stroke-linecap:butt;stroke-linejoin:miter;stroke-miterlimit:10.43299961;stroke-opacity:1;stroke-dasharray:none;stroke-dashoffset:0"
         word-spacing="normal"
         letter-spacing="normal"
         font-size-adjust="none"
         font-stretch="normal"
         font-weight="normal"
         font-variant="normal"
         font-style="normal"
         stroke-miterlimit="10.433"
         xml:space="preserve"
         transform="matrix(0.48593924,0,0,-0.48593924,-85.039367,340.15747)"
         id="g3177"><path
           style="fill:#000000;stroke-width:0"
           inkscape:connector-curvature="0"
           id="path3179"
           d="m 1151.3,359.1 0.1,0.26 0.1,0.26 0.1,0.25 0.1,0.24 0.1,0.23 0.1,0.23 0.1,0.21 0.2,0.21 0.1,0.21 0.1,0.19 0.2,0.19 0.1,0.18 0.3,0.34 0.3,0.32 0.3,0.29 0.3,0.27 0.3,0.24 0.3,0.23 0.3,0.2 0.3,0.18 0.4,0.16 0.3,0.15 0.3,0.13 0.3,0.11 0.3,0.1 0.3,0.08 0.3,0.07 0.2,0.06 0.3,0.05 0.2,0.04 0.2,0.03 0.2,0.03 0.2,0.01 0.2,0.02 0.1,0 0.2,0.01 0,0 0.1,0 c 7.5,0 8.1,-8.72 8.1,-12.66 0,-3.04 -0.3,-3.89 -0.6,-4.89 -1.1,-3.62 -2.6,-9.4 -2.6,-10.7 0,-0.55 0.2,-0.91 0.6,-0.91 0.7,0 1.1,1.11 1.6,3 1.2,4.19 1.7,7.02 1.9,8.57 0.1,0.65 0.2,1.29 0.4,1.95 1.6,4.92 4.7,12.34 6.7,16.28 0.4,0.59 1,1.7 1,1.89 0,0.5 -0.5,0.5 -0.6,0.5 -0.1,0 -0.5,0 -0.6,-0.34 -2.6,-4.74 -4.6,-9.72 -6.6,-14.75 0,1.54 -0.1,5.32 -2,10.17 -1.2,3.03 -3.2,5.47 -6.7,5.47 -6.2,0 -9.7,-7.57 -9.7,-9.11 0,-0.5 0.5,-0.5 1,-0.5 z" /><path
           style="fill:#000000;stroke-width:0"
           inkscape:connector-curvature="0"
           id="path3181"
           d="m 1194.3,334.49 0,0.02 0,0.03 0,0.01 0,0.02 0,0.01 0,0.02 0,0.02 0,0.01 -0.1,0.02 0,0.02 0,0.03 0,0.02 0,0.02 0,0.03 0,0.03 -0.1,0.03 0,0.04 0,0.03 0,0.02 -0.1,0.02 0,0.02 0,0.02 0,0.02 0,0.03 -0.1,0.02 0,0.02 0,0.03 0,0.03 0,0.02 -0.1,0.03 0,0.03 0,0.03 -0.1,0.03 0,0.03 0,0.03 0,0.03 -0.1,0.04 0,0.03 0,0.04 -0.1,0.04 0,0.03 -0.1,0.04 c -6.2,6.28 -7.8,15.69 -7.8,23.31 0,8.68 1.9,17.35 8,23.57 0.7,0.61 0.7,0.7 0.7,0.86 0,0.34 -0.2,0.48 -0.5,0.48 -0.5,0 -5,-3.37 -7.9,-9.7 -2.6,-5.49 -3.2,-11.02 -3.2,-15.21 0,-3.89 0.6,-9.9 3.3,-15.54 3,-6.13 7.3,-9.36 7.8,-9.36 0.3,0 0.5,0.14 0.5,0.5 z" /><path
           style="fill:#000000;stroke-width:0"
           inkscape:connector-curvature="0"
           id="path3183"
           d="m 1211.8,378.33 -0.1,0.06 0,0.05 0,0.05 0,0.05 0,0.05 0,0.05 0,0.04 0,0.05 0,0.04 0,0.04 0,0.04 0,0.04 0,0.04 0,0.04 0,0.03 0,0.04 0,0.06 0,0.06 0,0.05 0,0.05 0,0.05 0,0.04 -0.1,0.04 0,0.04 0,0.03 -0.1,0.03 0,0.02 0,0.02 -0.1,0.02 0,0.01 0,0.01 0,0 -0.1,0.01 0,0.01 0,0 -0.1,0.01 0,0 0,0.01 -0.1,0 0,0 0,0.01 -0.1,0 0,0 -0.1,0 0,0.01 0,0 -0.1,0 0,0 -0.1,0 0,0 -0.1,0 c -3.1,-3.19 -7.5,-3.19 -9,-3.19 v -1.55 c 1,0 3.9,0 6.5,1.3 v -25.81 c 0,-1.8 -0.2,-2.39 -4.7,-2.39 h -1.6 v -1.55 c 1.8,0.16 6.1,0.16 8.1,0.16 2,0 6.3,0 8.1,-0.16 v 1.55 h -1.6 c -4.5,0 -4.6,0.55 -4.6,2.39 z" /><path
           style="fill:#000000;stroke-width:0"
           inkscape:connector-curvature="0"
           id="path3185"
           d="m 1266.1,357.89 0.1,0.01 0.2,0 0.1,0 0.1,0.01 0.1,0 0.1,0.01 0,0.01 0.1,0.01 0.1,0.01 0.1,0.01 0,0.02 0.1,0.02 0.1,0.02 0,0.02 0.1,0.03 0,0.03 0.1,0.04 0,0.04 0.1,0.04 0,0.05 0.1,0.05 0,0.02 0,0.03 0,0.03 0,0.03 0,0.03 0,0.04 0.1,0.03 0,0.03 0,0.04 0,0.04 0,0.04 0,0.04 0,0.04 0,0.04 0,0.05 0,0.04 c 0,1 -0.9,1 -1.7,1 h -27 c -0.8,0 -1.7,0 -1.7,-1 0,-1 0.9,-1 1.7,-1 z" /><path
           style="fill:#000000;stroke-width:0"
           inkscape:connector-curvature="0"
           id="path3187"
           d="m 1285.1,359.1 0.1,0.26 0.1,0.26 0.1,0.25 0.1,0.24 0.1,0.23 0.1,0.23 0.1,0.21 0.1,0.21 0.2,0.21 0.1,0.19 0.1,0.19 0.2,0.18 0.3,0.34 0.3,0.32 0.3,0.29 0.3,0.27 0.3,0.24 0.3,0.23 0.3,0.2 0.3,0.18 0.3,0.16 0.4,0.15 0.3,0.13 0.3,0.11 0.3,0.1 0.3,0.08 0.2,0.07 0.3,0.06 0.3,0.05 0.2,0.04 0.2,0.03 0.2,0.03 0.2,0.01 0.2,0.02 0.1,0 0.1,0.01 0.1,0 0.1,0 c 7.5,0 8.1,-8.72 8.1,-12.66 0,-3.04 -0.3,-3.89 -0.6,-4.89 -1.1,-3.62 -2.6,-9.4 -2.6,-10.7 0,-0.55 0.2,-0.91 0.6,-0.91 0.7,0 1.1,1.11 1.6,3 1.2,4.19 1.7,7.02 1.9,8.57 0.1,0.65 0.2,1.29 0.4,1.95 1.5,4.92 4.7,12.34 6.7,16.28 0.4,0.59 1,1.7 1,1.89 0,0.5 -0.5,0.5 -0.6,0.5 -0.2,0 -0.5,0 -0.6,-0.34 -2.6,-4.74 -4.6,-9.72 -6.6,-14.75 0,1.54 -0.1,5.32 -2,10.17 -1.2,3.03 -3.2,5.47 -6.7,5.47 -6.2,0 -9.7,-7.57 -9.7,-9.11 0,-0.5 0.5,-0.5 1,-0.5 z" /><path
           style="fill:#000000;stroke-width:0"
           inkscape:connector-curvature="0"
           id="path3189"
           d="m 1326,358.89 0,0.38 0,0.38 0,0.39 0,0.41 -0.1,0.84 0,0.88 -0.1,0.92 -0.1,0.95 -0.2,0.98 -0.1,1 -0.2,1.02 -0.3,1.04 -0.2,1.05 -0.3,1.06 -0.4,1.06 -0.4,1.07 -0.2,0.53 -0.2,0.53 -0.3,0.53 -0.2,0.53 c -3,6.13 -7.3,9.36 -7.8,9.36 -0.3,0 -0.5,-0.19 -0.5,-0.48 0,-0.16 0,-0.25 1,-1.16 4.9,-4.92 7.7,-12.84 7.7,-23.27 0,-8.51 -1.8,-17.28 -8,-23.56 -0.7,-0.59 -0.7,-0.7 -0.7,-0.84 0,-0.3 0.2,-0.5 0.5,-0.5 0.5,0 5,3.39 7.9,9.72 2.6,5.47 3.2,11 3.2,15.18 z" /></g>    </g>
    <g
       transform="translate(-144.62472,802.39467)"
       id="g3259">
      <g
         style="font-style:normal;font-variant:normal;font-weight:normal;font-stretch:normal;letter-spacing:normal;word-spacing:normal;text-anchor:start;fill:none;stroke:#000000;stroke-linecap:butt;stroke-linejoin:miter;stroke-miterlimit:10.43299961;stroke-opacity:1;stroke-dasharray:none;stroke-dashoffset:0"
         id="g3261"
         transform="matrix(0.48593924,0,0,-0.48593924,-85.039367,340.15747)"
         xml:space="preserve"
         stroke-miterlimit="10.433"
         font-style="normal"
         font-variant="normal"
         font-weight="normal"
         font-stretch="normal"
         font-size-adjust="none"
         letter-spacing="normal"
         word-spacing="normal"><path
           style="fill:#000000;stroke-width:0"
           inkscape:connector-curvature="0"
           d="m 1197.6,378.33 0,0.06 0,0.05 0,0.05 0,0.05 0,0.05 0,0.05 0,0.04 0,0.05 0,0.04 0,0.04 0,0.04 0,0.04 0,0.04 0,0.04 0,0.03 0,0.04 0,0.06 0,0.06 0,0.05 -0.1,0.05 0,0.05 0,0.04 0,0.04 0,0.04 -0.1,0.03 0,0.03 0,0.02 -0.1,0.02 0,0.02 0,0.01 -0.1,0.01 0,0 0,0.01 -0.1,0.01 0,0 0,0.01 0,0 -0.1,0.01 0,0 0,0 -0.1,0.01 0,0 -0.1,0 0,0 0,0.01 -0.1,0 0,0 -0.1,0 0,0 -0.1,0 0,0 c -3.1,-3.19 -7.5,-3.19 -9.1,-3.19 v -1.55 c 1,0 3.9,0 6.5,1.3 v -25.81 c 0,-1.8 -0.1,-2.39 -4.6,-2.39 h -1.6 v -1.55 c 1.7,0.16 6.1,0.16 8.1,0.16 2,0 6.3,0 8,-0.16 v 1.55 h -1.6 c -4.4,0 -4.6,0.55 -4.6,2.39 z"
           id="path3263" /><path
           style="fill:#000000;stroke-width:0"
           inkscape:connector-curvature="0"
           d="m 1251.8,357.89 0.1,0.01 0.2,0 0.2,0 0,0.01 0.1,0 0.1,0.01 0.1,0.01 0,0.01 0.1,0.01 0.1,0.01 0.1,0.02 0,0.02 0.1,0.02 0,0.02 0.1,0.03 0.1,0.03 0,0.04 0.1,0.04 0,0.04 0,0.05 0.1,0.05 0,0.02 0,0.03 0,0.03 0.1,0.03 0,0.03 0,0.04 0,0.03 0,0.03 0,0.04 0,0.04 0,0.04 0,0.04 0,0.04 0,0.04 0,0.05 0,0.04 c 0,1 -0.9,1 -1.7,1 h -27 c -0.8,0 -1.7,0 -1.7,-1 0,-1 0.9,-1 1.7,-1 z"
           id="path3265" /><path
           style="fill:#000000;stroke-width:0"
           inkscape:connector-curvature="0"
           d="m 1270.8,359.1 0.1,0.26 0.1,0.26 0.1,0.25 0.1,0.24 0.1,0.23 0.1,0.23 0.2,0.21 0.1,0.21 0.1,0.21 0.1,0.19 0.2,0.19 0.1,0.18 0.3,0.34 0.3,0.32 0.3,0.29 0.3,0.27 0.3,0.24 0.3,0.23 0.3,0.2 0.4,0.18 0.3,0.16 0.3,0.15 0.3,0.13 0.3,0.11 0.3,0.1 0.3,0.08 0.3,0.07 0.2,0.06 0.3,0.05 0.2,0.04 0.3,0.03 0.2,0.03 0.1,0.01 0.2,0.02 0.1,0 0.2,0.01 0.1,0 0,0 c 7.5,0 8.1,-8.72 8.1,-12.66 0,-3.04 -0.3,-3.89 -0.6,-4.89 -1.1,-3.62 -2.6,-9.4 -2.6,-10.7 0,-0.55 0.2,-0.91 0.6,-0.91 0.7,0 1.1,1.11 1.6,3 1.2,4.19 1.7,7.02 1.9,8.57 0.1,0.65 0.2,1.29 0.4,1.95 1.6,4.92 4.8,12.34 6.8,16.28 0.3,0.59 0.9,1.7 0.9,1.89 0,0.5 -0.5,0.5 -0.6,0.5 -0.1,0 -0.4,0 -0.6,-0.34 -2.6,-4.74 -4.6,-9.72 -6.6,-14.75 0,1.54 -0.1,5.32 -2,10.17 -1.2,3.03 -3.2,5.47 -6.6,5.47 -6.3,0 -9.8,-7.57 -9.8,-9.11 0,-0.5 0.5,-0.5 1,-0.5 z"
           id="path3267" /></g>    </g>
    <path
       style="fill:none;stroke:#999999;stroke-width:1px;stroke-linecap:butt;stroke-linejoin:miter;stroke-opacity:1"
       d="m 318.89764,56.692901 14.17323,0 0,141.732289 -14.17323,0"
       id="path3813"
       inkscape:connector-curvature="0"
       transform="translate(-4.149475e-6,698.0315)" />
    <path
       style="fill:none;stroke:#999999;stroke-width:1px;stroke-linecap:butt;stroke-linejoin:miter;stroke-opacity:1"
       d="m 318.89764,340.15747 14.17323,0 0,-141.73228 -14.17323,0"
       id="path3815"
       inkscape:connector-curvature="0"
       transform="translate(-4.149475e-6,698.0315)" />
    <path
       style="fill:none;stroke:#999999;stroke-width:1px;stroke-linecap:butt;stroke-linejoin:miter;stroke-opacity:1"
       d="m 70.866142,198.42519 -14.173229,0 0,70.86614 14.173229,0"
       id="path3817"
       inkscape:connector-curvature="0"
       transform="translate(-4.149475e-6,698.0315)" />
  </g>
</svg>
