<?xml version="1.0" encoding="UTF-8" standalone="no"?>
<!-- Created with Inkscape (http://www.inkscape.org/) -->

<svg
   xmlns:dc="http://purl.org/dc/elements/1.1/"
   xmlns:cc="http://creativecommons.org/ns#"
   xmlns:rdf="http://www.w3.org/1999/02/22-rdf-syntax-ns#"
   xmlns:svg="http://www.w3.org/2000/svg"
   xmlns="http://www.w3.org/2000/svg"
   xmlns:sodipodi="http://sodipodi.sourceforge.net/DTD/sodipodi-0.dtd"
   xmlns:inkscape="http://www.inkscape.org/namespaces/inkscape"
   width="245.87222"
   height="92.210121"
   id="svg2"
   sodipodi:version="0.32"
   inkscape:version="0.48.4 r9939"
   sodipodi:docname="variable_dimension_slice_sampling.svg"
   version="1.0">
  <sodipodi:namedview
     id="base"
     pagecolor="#ffffff"
     bordercolor="#666666"
     borderopacity="1.0"
     inkscape:pageopacity="0.0"
     inkscape:pageshadow="2"
     inkscape:zoom="1.540463"
     inkscape:cx="29.909741"
     inkscape:cy="80.140739"
     inkscape:document-units="mm"
     inkscape:current-layer="layer1"
     inkscape:window-width="1280"
     inkscape:window-height="749"
     inkscape:window-x="0"
     inkscape:window-y="0"
     width="12.8cm"
     height="9.6cm"
     units="cm"
     showgrid="true"
     grid_units="mm"
     inkscape:object-paths="false"
     inkscape:grid-points="true"
     inkscape:grid-bbox="true"
     inkscape:guide-points="true"
     showguides="true"
     inkscape:guide-bbox="true"
     inkscape:window-maximized="1"
     fit-margin-top="0"
     fit-margin-left="0"
     fit-margin-right="0"
     fit-margin-bottom="0">
    <sodipodi:guide
       id="guide3573"
       position="-47.79022,-14.196341"
       orientation="vertical" />
    <sodipodi:guide
       id="guide3579"
       position="-104.26675,-3.160698"
       orientation="horizontal" />
    <sodipodi:guide
       id="guide3886"
       position="72.898607,-49.629413"
       orientation="horizontal" />
    <sodipodi:guide
       id="guide3988"
       position="-104.26675,271.43207"
       orientation="horizontal" />
    <sodipodi:guide
       id="guide4081"
       position="-104.26675,288.95927"
       orientation="horizontal" />
    <inkscape:grid
       snapvisiblegridlinesonly="true"
       enabled="true"
       visible="true"
       units="mm"
       empspacing="5"
       empopacity="0.38"
       opacity="0.15"
       empcolor="#3f3fff"
       color="#3f3fff"
       spacingy="2mm"
       spacingx="2mm"
       originy="-4.0065229mm"
       originx="-29.426393mm"
       type="xygrid"
       id="GridFromPre046Settings" />
  </sodipodi:namedview>
  <defs
     id="defs4" />
  <metadata
     id="metadata7">
    <rdf:RDF>
      <cc:Work
         rdf:about="">
        <dc:format>image/svg+xml</dc:format>
        <dc:type
           rdf:resource="http://purl.org/dc/dcmitype/StillImage" />
        <dc:title />
      </cc:Work>
    </rdf:RDF>
  </metadata>
  <g
     transform="translate(-104.26674,-931.78252)"
     id="layer1"
     inkscape:groupmode="layer"
     inkscape:label="Layer 1">
    <path
       sodipodi:nodetypes="csc"
       inkscape:connector-curvature="0"
       id="path3003-05-8"
       d="m 105.79396,1003.1487 c 28.34646,0 22.25933,-42.4687 42.3033,-42.5197 20.04397,-0.051 14.38961,42.5197 42.73607,42.5197"
       style="fill:#ff7f2a;stroke:#808080;stroke-width:1px;stroke-linecap:butt;stroke-linejoin:miter;stroke-opacity:1" />
    <path
       sodipodi:nodetypes="cc"
       inkscape:connector-curvature="0"
       id="path4017"
       d="m 148.47652,1003.1487 0.21639,-70.86618"
       style="fill:#5599ff;stroke:#5599ff;stroke-width:1px;stroke-linecap:butt;stroke-linejoin:miter;stroke-opacity:1" />
    <path
       sodipodi:nodetypes="csc"
       inkscape:connector-curvature="0"
       id="path3003-05-8-2-4"
       d="m 247.56038,1003.1487 c 28.34646,0 22.94683,-63.63135 42.9908,-63.68235 20.04397,-0.051 13.70211,63.68235 42.04857,63.68235"
       style="fill:#5599ff;fill-opacity:1;stroke:#808080;stroke-width:1px;stroke-linecap:butt;stroke-linejoin:miter;stroke-opacity:1" />
    <path
       sodipodi:nodetypes="csc"
       inkscape:connector-curvature="0"
       id="path3003-05-8-2"
       d="m 247.56038,1003.1487 c 28.34646,0 22.25933,-42.46871 42.3033,-42.51971 20.04397,-0.051 14.38961,42.51971 42.73607,42.51971"
       style="fill:#ff7f2a;stroke:#808080;stroke-width:1px;stroke-linecap:butt;stroke-linejoin:miter;stroke-opacity:1" />
    <g
       transform="translate(-142.36232,680.98489)"
       id="g4115">
      <g
         style="font-style:normal;font-variant:normal;font-weight:normal;font-stretch:normal;letter-spacing:normal;word-spacing:normal;text-anchor:start;fill:none;stroke:#000000;stroke-linecap:butt;stroke-linejoin:miter;stroke-miterlimit:10.43299961;stroke-opacity:1;stroke-dasharray:none;stroke-dashoffset:0"
         word-spacing="normal"
         letter-spacing="normal"
         font-size-adjust="none"
         font-stretch="normal"
         font-weight="normal"
         font-variant="normal"
         font-style="normal"
         stroke-miterlimit="10.433"
         xml:space="preserve"
         transform="matrix(0.27221751,0,0,-0.27221751,-47.638065,433.92568)"
         id="content"><path
           style="fill:#000000;stroke-width:0"
           inkscape:connector-curvature="0"
           id="path4118"
           d="m 1101.6,367.91 -0.1,0.02 0,0.02 0,0.02 0,0.02 0,0.02 0,0.02 0,0.02 0,0.02 0,0.02 0,0.03 0,0.02 0,0.02 0,0.02 0,0.02 -0.1,0.02 0,0.02 0,0.01 0,0.02 0,0.02 0,0.02 -0.1,0.01 0,0.01 0,0.02 0,0.01 0,0.01 -0.1,0.01 0,0.01 0,0.01 -0.1,0 0,0.01 0,0 0,0 0,0 c -0.6,0 -2.6,-1.98 -3.4,-3.44 -1.1,2.69 -3.1,3.49 -4.7,3.49 v -1.1 c 3.3,0 4,-4.03 4,-4.37 0,-0.31 -2.8,-11.22 -2.9,-11.42 -0.8,-1.39 -3.5,-4.58 -6.3,-4.58 h 0 c -3,0 -3.2,3.84 -3.2,4.69 0,2.39 1.4,7.81 2.3,9.9 1.5,3.69 4.1,5.78 6.1,5.78 v 1.1 c -5.8,0 -12,-7.38 -12,-14.6 0,-4.87 3,-7.97 6.6,-7.97 2.2,0 4.1,1.19 5.9,2.99 -0.5,-1.74 -2.1,-8.47 -2.3,-8.92 -0.4,-1.39 -0.8,-1.6 -3.5,-1.64 -0.7,0 -1.2,0 -1.2,-1 0,-0.05 0,-0.55 0.7,-0.55 1.6,0 3.3,0.16 5,0.16 1.6,0 3.4,-0.16 5.1,-0.16 0.2,0 0.9,0 0.9,1 0,0.55 -0.5,0.55 -1.3,0.55 -2.4,0 -2.4,0.36 -2.4,0.79 0,0.36 0.1,0.66 0.2,1.1 z" /><path
           style="fill:#000000;stroke-width:0"
           inkscape:connector-curvature="0"
           id="path4120"
           d="m 1119.2,349.99 0,0.71 0,0.68 0,0.66 -0.1,0.64 0,0.62 -0.1,0.59 -0.1,0.58 -0.1,0.56 -0.1,0.55 -0.2,0.52 -0.1,0.52 -0.2,0.5 -0.3,0.49 -0.2,0.48 -0.3,0.47 -0.1,0.23 -0.1,0.23 c -1.1,1.61 -3.3,3 -6.1,3 -8,0 -8,-9.52 -8,-12.03 0,-2.5 0,-11.81 8,-11.81 v 0.98 c -1.6,0 -3.7,0.94 -4.4,3.8 -0.5,2.04 -0.5,4.9 -0.5,7.48 0,2.55 0,5.2 0.5,7.11 0.8,2.75 3,3.49 4.4,3.49 1.9,0 3.7,-1.15 4.4,-3.18 0.5,-1.87 0.6,-4.39 0.6,-7.42 0,-2.58 0,-5.15 -0.5,-7.34 -0.7,-3.17 -3.1,-3.94 -4.5,-3.94 h 0 v -0.98 c 8.1,0 8.1,9.31 8.1,11.81 z" /><path
           style="fill:#000000;stroke-width:0"
           inkscape:connector-curvature="0"
           id="path4122"
           d="m 1136.8,368.21 -0.5,-0.16 -0.6,-0.18 -0.6,-0.21 -0.5,-0.23 -0.6,-0.26 -0.5,-0.29 -0.5,-0.31 -0.5,-0.33 -0.5,-0.35 -0.5,-0.37 -0.5,-0.39 -0.4,-0.41 -0.4,-0.43 -0.5,-0.45 -0.4,-0.45 -0.3,-0.48 -0.4,-0.48 -0.3,-0.5 -0.4,-0.51 -0.3,-0.52 -0.3,-0.53 -0.2,-0.54 -0.3,-0.55 -0.2,-0.55 -0.2,-0.56 -0.1,-0.56 -0.2,-0.56 -0.1,-0.57 -0.1,-0.57 -0.1,-0.57 0,-0.57 0,-0.56 c 0,-4.78 3.2,-8.36 7.9,-8.36 v 1.09 c -2.8,0 -4.8,2.1 -4.8,5.88 0,3.14 1.8,12.5 8.5,14.29 h 0 c 1.3,-2.28 2.8,-4.98 2.8,-8.56 0,-3.3 -1.9,-11.61 -6.5,-11.61 v -1.09 c 5.8,0 9.9,7.81 9.9,14.69 0,4.54 -2,7.03 -3.7,9.26 -1.8,2.25 -4.7,5.99 -4.7,8.17 0,1.11 1,2.3 2.7,2.3 1.5,0 2.5,-0.64 3.6,-1.34 1,-0.6 2,-1.25 2.7,-1.25 1.2,0 2,1.2 2,2 0,1.09 -0.8,1.23 -2.6,1.64 -2.6,0.54 -3.3,0.54 -4.1,0.54 -3.9,0 -5.7,-2.14 -5.7,-5.12 0,-2.7 1.5,-5.49 3,-8.53 z" /><path
           style="fill:#000000;stroke-width:0"
           inkscape:connector-curvature="0"
           id="path4124"
           d="m 1164.2,334.49 0,0.02 0,0.03 0,0.01 0,0.02 0,0.01 -0.1,0.02 0,0.02 0,0.01 0,0.02 0,0.02 0,0.03 0,0.02 0,0.02 0,0.03 -0.1,0.03 0,0.03 0,0.04 0,0.03 -0.1,0.02 0,0.02 0,0.02 0,0.02 0,0.02 -0.1,0.03 0,0.02 0,0.02 0,0.03 0,0.03 -0.1,0.02 0,0.03 0,0.03 0,0.03 -0.1,0.03 0,0.03 0,0.03 -0.1,0.03 0,0.04 0,0.03 -0.1,0.04 0,0.04 0,0.03 -0.1,0.04 c -6.2,6.28 -7.8,15.69 -7.8,23.31 0,8.68 1.9,17.35 8,23.57 0.7,0.61 0.7,0.7 0.7,0.86 0,0.34 -0.2,0.48 -0.5,0.48 -0.5,0 -5,-3.37 -7.9,-9.7 -2.6,-5.49 -3.2,-11.02 -3.2,-15.21 0,-3.89 0.6,-9.9 3.3,-15.54 3,-6.13 7.3,-9.36 7.8,-9.36 0.3,0 0.5,0.14 0.5,0.5 z" /><path
           style="fill:#000000;stroke-width:0"
           inkscape:connector-curvature="0"
           id="path4126"
           d="m 1189.7,371.35 0,0.32 0,0.34 -0.1,0.35 0,0.37 0,0.39 0,0.4 -0.1,0.4 -0.1,0.42 0,0.42 -0.1,0.42 -0.1,0.42 -0.1,0.43 -0.1,0.42 -0.1,0.42 -0.2,0.42 -0.1,0.4 -0.2,0.4 -0.2,0.38 -0.2,0.38 -0.2,0.35 -0.2,0.34 -0.3,0.32 -0.3,0.3 -0.2,0.27 -0.4,0.25 -0.1,0.12 -0.2,0.11 -0.2,0.1 -0.1,0.09 -0.2,0.08 -0.2,0.08 -0.2,0.07 -0.2,0.06 -0.2,0.05 -0.2,0.05 -0.2,0.03 -0.3,0.03 -0.2,0.01 -0.2,0.01 -0.1,-1.1 c 2.5,0 2.8,-3.18 2.8,-6.03 0,-2.44 -0.4,-4.98 -1.6,-9.92 h -10.4 c 0.8,3.2 1.8,7.19 3.8,10.72 1.4,2.44 3.2,5.23 5.4,5.23 l 0.1,1.1 c -6.9,0 -14.6,-14.05 -14.6,-25.46 0,-4.68 1.4,-10.22 6,-10.22 v 1.1 c -1.7,0 -2.7,1.45 -2.7,6.08 0,2.09 0.3,4.98 1.6,9.86 h 10.3 c -0.5,-2.29 -1.5,-6.52 -3.5,-10.11 -1.7,-3.39 -3.6,-5.83 -5.7,-5.83 v -1.1 c 7,0 14.6,14.3 14.6,25.46 z" /><path
           style="fill:#000000;stroke-width:0"
           inkscape:connector-curvature="0"
           id="path4128"
           d="m 1208.4,349.99 0,0.71 0,0.68 -0.1,0.66 0,0.64 -0.1,0.62 0,0.59 -0.1,0.58 -0.1,0.56 -0.2,0.55 -0.1,0.52 -0.2,0.52 -0.2,0.5 -0.2,0.49 -0.2,0.48 -0.3,0.47 -0.1,0.23 -0.2,0.23 c -1.1,1.61 -3.2,3 -6,3 -8.1,0 -8.1,-9.52 -8.1,-12.03 0,-2.5 0,-11.81 8.1,-11.81 v 0.98 c -1.6,0 -3.7,0.94 -4.4,3.8 -0.5,2.04 -0.5,4.9 -0.5,7.48 0,2.55 0,5.2 0.5,7.11 0.7,2.75 3,3.49 4.4,3.49 1.9,0 3.7,-1.15 4.3,-3.18 0.6,-1.87 0.6,-4.39 0.6,-7.42 0,-2.58 0,-5.15 -0.4,-7.34 -0.7,-3.17 -3.1,-3.94 -4.5,-3.94 h 0 v -0.98 c 8.1,0 8.1,9.31 8.1,11.81 z" /><path
           style="fill:#000000;stroke-width:0"
           inkscape:connector-curvature="0"
           id="path4130"
           d="m 1227.2,358.89 0,0.38 0,0.38 0,0.39 0,0.41 0,0.84 -0.1,0.88 -0.1,0.92 -0.1,0.95 -0.1,0.98 -0.2,1 -0.2,1.02 -0.2,1.04 -0.3,1.05 -0.3,1.06 -0.3,1.06 -0.4,1.07 -0.2,0.53 -0.3,0.53 -0.2,0.53 -0.3,0.53 c -2.9,6.13 -7.2,9.36 -7.7,9.36 -0.3,0 -0.5,-0.19 -0.5,-0.48 0,-0.16 0,-0.25 0.9,-1.16 4.9,-4.92 7.8,-12.84 7.8,-23.27 0,-8.51 -1.9,-17.28 -8.1,-23.56 -0.6,-0.59 -0.6,-0.7 -0.6,-0.84 0,-0.3 0.2,-0.5 0.5,-0.5 0.5,0 5,3.39 7.9,9.72 2.5,5.47 3.1,11 3.1,15.18 z" /><path
           style="fill:#000000;stroke-width:0"
           inkscape:connector-curvature="0"
           id="path4132"
           d="m 1263.6,357.89 h 13.9 c 0.7,0 1.6,0 1.6,1 0,1 -0.9,1 -1.6,1 h -13.9 v 13.96 c 0,0.69 0,1.64 -1,1.64 -1,0 -1,-0.95 -1,-1.64 v -13.96 h -14 c -0.7,0 -1.6,0 -1.6,-1 0,-1 0.9,-1 1.6,-1 h 14 v -13.93 c 0,-0.71 0,-1.66 1,-1.66 1,0 1,0.95 1,1.66 z" /><path
           style="fill:#000000;stroke-width:0"
           inkscape:connector-curvature="0"
           id="path4134"
           d="m 1315.5,367.91 0,0.02 0,0.02 0,0.02 0,0.02 0,0.02 0,0.02 0,0.02 0,0.02 0,0.02 0,0.03 0,0.02 -0.1,0.02 0,0.02 0,0.02 0,0.02 0,0.02 0,0.01 0,0.02 -0.1,0.02 0,0.02 0,0.01 0,0.01 0,0.02 -0.1,0.01 0,0.01 0,0.01 0,0.01 -0.1,0.01 0,0 0,0.01 -0.1,0 0,0 0,0 c -0.5,0 -2.5,-1.98 -3.4,-3.44 -1.1,2.69 -3,3.49 -4.6,3.49 v -1.1 c 3.2,0 3.9,-4.03 3.9,-4.37 0,-0.31 -2.7,-11.22 -2.9,-11.42 -0.7,-1.39 -3.5,-4.58 -6.3,-4.58 h 0 c -3,0 -3.2,3.84 -3.2,4.69 0,2.39 1.5,7.81 2.3,9.9 1.6,3.69 4.1,5.78 6.2,5.78 v 1.1 c -5.9,0 -12,-7.38 -12,-14.6 0,-4.87 2.9,-7.97 6.6,-7.97 2.1,0 4.1,1.19 5.8,2.99 -0.4,-1.74 -2,-8.47 -2.2,-8.92 -0.4,-1.39 -0.8,-1.6 -3.6,-1.64 -0.6,0 -1.1,0 -1.1,-1 0,-0.05 0,-0.55 0.6,-0.55 1.6,0 3.3,0.16 5,0.16 1.7,0 3.5,-0.16 5.1,-0.16 0.3,0 0.9,0 0.9,1 0,0.55 -0.5,0.55 -1.3,0.55 -2.4,0 -2.4,0.36 -2.4,0.79 0,0.36 0.1,0.66 0.2,1.1 z" /><path
           style="fill:#000000;stroke-width:0"
           inkscape:connector-curvature="0"
           id="path4136"
           d="m 1326.9,361.04 0,0.04 0,0.04 0,0.04 0,0.04 0,0.04 0,0.04 0,0.04 0,0.03 0,0.03 0,0.04 0,0.03 0,0.03 0,0.03 0,0.03 -0.1,0.02 0,0.03 0,0.03 0,0.02 0,0.05 0,0.04 0,0.04 0,0.03 0,0.03 -0.1,0.03 0,0.02 0,0.03 0,0.02 -0.1,0.01 0,0.02 -0.1,0.01 0,0.01 0,0.01 0,0 -0.1,0.01 0,0 0,0 -0.1,0.01 0,0 0,0 0,0 -0.1,0 0,0.01 -0.1,0 0,0 0,0 -0.1,0 0,0 0,0 -0.1,0 0,0 -0.1,0 c -2.2,-2.2 -5.4,-2.23 -6.8,-2.23 v -1.25 c 0.8,0 3.1,0 5,0.96 v -17.76 c 0,-1.16 0,-1.61 -3.4,-1.61 h -1.4 v -1.25 c 0.7,0.03 5,0.14 6.2,0.14 1.1,0 5.5,-0.11 6.3,-0.14 v 1.25 h -1.3 c -3.5,0 -3.5,0.45 -3.5,1.61 z" /><path
           style="fill:#000000;stroke-width:0"
           inkscape:connector-curvature="0"
           id="path4138"
           d="m 1354.1,334.49 0,0.02 0,0.03 0,0.01 0,0.02 0,0.01 0,0.02 0,0.02 0,0.01 0,0.02 0,0.02 0,0.03 -0.1,0.02 0,0.02 0,0.03 0,0.03 0,0.03 -0.1,0.04 0,0.03 0,0.02 0,0.02 0,0.02 -0.1,0.02 0,0.02 0,0.03 0,0.02 0,0.02 -0.1,0.03 0,0.03 0,0.02 0,0.03 -0.1,0.03 0,0.03 0,0.03 0,0.03 -0.1,0.03 0,0.03 0,0.04 -0.1,0.03 0,0.04 0,0.04 -0.1,0.03 0,0.04 c -6.2,6.28 -7.8,15.69 -7.8,23.31 0,8.68 1.9,17.35 8,23.57 0.6,0.61 0.6,0.7 0.6,0.86 0,0.34 -0.2,0.48 -0.5,0.48 -0.5,0 -4.9,-3.37 -7.9,-9.7 -2.5,-5.49 -3.1,-11.02 -3.1,-15.21 0,-3.89 0.5,-9.9 3.3,-15.54 2.9,-6.13 7.2,-9.36 7.7,-9.36 0.3,0 0.5,0.14 0.5,0.5 z" /><path
           style="fill:#000000;stroke-width:0"
           inkscape:connector-curvature="0"
           id="path4140"
           d="m 1379.6,371.35 0,0.32 0,0.34 0,0.35 0,0.37 0,0.39 -0.1,0.4 0,0.4 -0.1,0.42 -0.1,0.42 0,0.42 -0.1,0.42 -0.1,0.43 -0.1,0.42 -0.2,0.42 -0.1,0.42 -0.2,0.4 -0.1,0.4 -0.2,0.38 -0.2,0.38 -0.2,0.35 -0.3,0.34 -0.2,0.32 -0.3,0.3 -0.3,0.27 -0.3,0.25 -0.2,0.12 -0.1,0.11 -0.2,0.1 -0.2,0.09 -0.2,0.08 -0.1,0.08 -0.2,0.07 -0.2,0.06 -0.2,0.05 -0.3,0.05 -0.2,0.03 -0.2,0.03 -0.2,0.01 -0.3,0.01 0,-1.1 c 2.4,0 2.7,-3.18 2.7,-6.03 0,-2.44 -0.4,-4.98 -1.6,-9.92 h -10.4 c 0.9,3.2 1.9,7.19 3.9,10.72 1.3,2.44 3.1,5.23 5.4,5.23 l 0,1.1 c -6.9,0 -14.5,-14.05 -14.5,-25.46 0,-4.68 1.4,-10.22 5.9,-10.22 v 1.1 c -1.6,0 -2.7,1.45 -2.7,6.08 0,2.09 0.3,4.98 1.6,9.86 h 10.4 c -0.5,-2.29 -1.6,-6.52 -3.5,-10.11 -1.7,-3.39 -3.6,-5.83 -5.8,-5.83 v -1.1 c 7.1,0 14.6,14.3 14.6,25.46 z" /><path
           style="fill:#000000;stroke-width:0"
           inkscape:connector-curvature="0"
           id="path4142"
           d="m 1396.2,358.89 0,0.38 0,0.38 0,0.39 0,0.41 -0.1,0.84 0,0.88 -0.1,0.92 -0.1,0.95 -0.2,0.98 -0.1,1 -0.2,1.02 -0.3,1.04 -0.2,1.05 -0.3,1.06 -0.4,1.06 -0.4,1.07 -0.2,0.53 -0.2,0.53 -0.2,0.53 -0.3,0.53 c -3,6.13 -7.3,9.36 -7.8,9.36 -0.3,0 -0.5,-0.19 -0.5,-0.48 0,-0.16 0,-0.25 1,-1.16 4.9,-4.92 7.7,-12.84 7.7,-23.27 0,-8.51 -1.8,-17.28 -8,-23.56 -0.7,-0.59 -0.7,-0.7 -0.7,-0.84 0,-0.3 0.2,-0.5 0.5,-0.5 0.5,0 5,3.39 8,9.72 2.5,5.47 3.1,11 3.1,15.18 z" /></g>    </g>
    <g
       id="g4418"
       transform="translate(2,680.98489)">
      <g
         word-spacing="normal"
         letter-spacing="normal"
         font-size-adjust="none"
         font-stretch="normal"
         font-weight="normal"
         font-variant="normal"
         font-style="normal"
         stroke-miterlimit="10.433"
         xml:space="preserve"
         transform="matrix(0.27221751,0,0,-0.27221751,-47.638065,433.92568)"
         id="g4420"
         style="font-style:normal;font-variant:normal;font-weight:normal;font-stretch:normal;letter-spacing:normal;word-spacing:normal;text-anchor:start;fill:none;stroke:#000000;stroke-linecap:butt;stroke-linejoin:miter;stroke-miterlimit:10.43299961;stroke-opacity:1;stroke-dasharray:none;stroke-dashoffset:0"><path
           id="path4422"
           d="m 1044,367.91 0,0.02 0,0.02 0,0.02 0,0.02 -0.1,0.02 0,0.02 0,0.02 0,0.02 0,0.02 0,0.03 0,0.02 0,0.02 0,0.02 0,0.02 0,0.02 -0.1,0.02 0,0.01 0,0.02 0,0.02 0,0.02 0,0.01 -0.1,0.01 0,0.02 0,0.01 0,0.01 -0.1,0.01 0,0.01 0,0.01 0,0 -0.1,0.01 0,0 0,0 0,0 c -0.6,0 -2.6,-1.98 -3.4,-3.44 -1.1,2.69 -3.1,3.49 -4.7,3.49 v -1.1 c 3.3,0 4,-4.03 4,-4.37 0,-0.31 -2.8,-11.22 -2.9,-11.42 -0.8,-1.39 -3.5,-4.58 -6.3,-4.58 h 0 c -3,0 -3.2,3.84 -3.2,4.69 0,2.39 1.4,7.81 2.3,9.9 1.5,3.69 4.1,5.78 6.1,5.78 v 1.1 c -5.8,0 -12,-7.38 -12,-14.6 0,-4.87 3,-7.97 6.6,-7.97 2.2,0 4.1,1.19 5.9,2.99 -0.5,-1.74 -2.1,-8.47 -2.3,-8.92 -0.4,-1.39 -0.8,-1.6 -3.5,-1.64 -0.7,0 -1.2,0 -1.2,-1 0,-0.05 0,-0.55 0.7,-0.55 1.6,0 3.3,0.16 5,0.16 1.6,0 3.4,-0.16 5.1,-0.16 0.2,0 0.9,0 0.9,1 0,0.55 -0.5,0.55 -1.3,0.55 -2.4,0 -2.4,0.36 -2.4,0.79 0,0.36 0.1,0.66 0.2,1.1 z"
           inkscape:connector-curvature="0"
           style="fill:#000000;stroke-width:0" /><path
           id="path4424"
           d="m 1061.6,349.99 0,0.71 0,0.68 0,0.66 -0.1,0.64 0,0.62 -0.1,0.59 -0.1,0.58 -0.1,0.56 -0.1,0.55 -0.2,0.52 -0.1,0.52 -0.2,0.5 -0.3,0.49 -0.2,0.48 -0.3,0.47 -0.1,0.23 -0.1,0.23 c -1.1,1.61 -3.3,3 -6.1,3 -8.1,0 -8.1,-9.52 -8.1,-12.03 0,-2.5 0,-11.81 8.1,-11.81 v 0.98 c -1.6,0 -3.7,0.94 -4.4,3.8 -0.5,2.04 -0.5,4.9 -0.5,7.48 0,2.55 0,5.2 0.5,7.11 0.8,2.75 3,3.49 4.4,3.49 1.9,0 3.7,-1.15 4.4,-3.18 0.5,-1.87 0.5,-4.39 0.5,-7.42 0,-2.58 0,-5.15 -0.4,-7.34 -0.7,-3.17 -3.1,-3.94 -4.5,-3.94 h 0 v -0.98 c 8.1,0 8.1,9.31 8.1,11.81 z"
           inkscape:connector-curvature="0"
           style="fill:#000000;stroke-width:0" /><path
           id="path4426"
           d="m 1103.6,375.24 0.1,0.37 0.1,0.18 0,0.17 0.1,0.18 0.1,0.17 0,0.16 0.1,0.17 0.1,0.15 0.1,0.16 0.1,0.15 0.1,0.14 0.1,0.14 0.1,0.14 0.2,0.13 0.1,0.12 0.2,0.12 0.1,0.12 0.2,0.11 0.2,0.1 0.2,0.09 0.2,0.09 0.2,0.09 0.3,0.08 0.2,0.07 0.3,0.06 0.3,0.06 0.3,0.04 0.3,0.05 0.3,0.03 0.3,0.03 0.2,0.01 0.2,0.01 c 0.3,0 0.8,0.04 0.8,1 0,0.04 0,0.54 -0.6,0.54 -1.6,0 -3.4,-0.15 -5,-0.15 -1.7,0 -3.5,0.15 -5.1,0.15 -0.3,0 -0.9,0 -0.9,-1 0,-0.54 0.5,-0.54 0.9,-0.54 2.8,-0.05 3.4,-1.1 3.4,-2.19 0,-0.16 -0.1,-0.91 -0.2,-1.05 l -5.5,-22.17 -11.1,26 c -0.4,0.91 -0.4,0.95 -1.5,0.95 h -6.7 c -1,0 -1.5,0 -1.5,-1 0,-0.54 0.5,-0.54 1.4,-0.54 0.3,0 3.4,0 3.4,-0.46 l -6.7,-26.75 c -0.5,-2 -1.3,-3.59 -5.3,-3.73 -0.4,0 -0.9,-0.05 -0.9,-1 0,-0.35 0.3,-0.55 0.7,-0.55 1.6,0 3.3,0.16 4.9,0.16 1.7,0 3.5,-0.16 5.2,-0.16 0.2,0 0.9,0 0.9,1 0,0.5 -0.5,0.55 -1,0.55 -2.9,0.09 -3.3,1.19 -3.3,2.19 0,0.34 0,0.59 0.2,1.14 l 6.6,26.31 c 0.2,-0.3 0.2,-0.39 0.4,-0.89 l 12.4,-29.35 c 0.4,-0.85 0.5,-0.95 0.9,-0.95 0.6,0 0.6,0.16 0.9,1.05 z"
           inkscape:connector-curvature="0"
           style="fill:#000000;stroke-width:0" /><path
           id="path4428"
           d="m 1127.9,334.49 0,0.02 0,0.03 0,0.01 0,0.02 0,0.01 0,0.02 0,0.02 0,0.01 0,0.02 0,0.02 0,0.03 -0.1,0.02 0,0.02 0,0.03 0,0.03 0,0.03 -0.1,0.04 0,0.03 0,0.02 0,0.02 0,0.02 -0.1,0.02 0,0.02 0,0.03 0,0.02 0,0.02 -0.1,0.03 0,0.03 0,0.02 0,0.03 -0.1,0.03 0,0.03 0,0.03 0,0.03 -0.1,0.03 0,0.03 0,0.04 -0.1,0.03 0,0.04 0,0.04 -0.1,0.03 0,0.04 c -6.2,6.28 -7.8,15.69 -7.8,23.31 0,8.68 1.9,17.35 8,23.57 0.6,0.61 0.6,0.7 0.6,0.86 0,0.34 -0.2,0.48 -0.5,0.48 -0.5,0 -5,-3.37 -7.9,-9.7 -2.5,-5.49 -3.1,-11.02 -3.1,-15.21 0,-3.89 0.5,-9.9 3.3,-15.54 2.9,-6.13 7.2,-9.36 7.7,-9.36 0.3,0 0.5,0.14 0.5,0.5 z"
           inkscape:connector-curvature="0"
           style="fill:#000000;stroke-width:0" /><path
           id="path4430"
           d="m 1153.4,371.35 0,0.32 0,0.34 0,0.35 0,0.37 0,0.39 -0.1,0.4 0,0.4 -0.1,0.42 -0.1,0.42 0,0.42 -0.1,0.42 -0.1,0.43 -0.1,0.42 -0.2,0.42 -0.1,0.42 -0.2,0.4 -0.1,0.4 -0.2,0.38 -0.2,0.38 -0.2,0.35 -0.3,0.34 -0.2,0.32 -0.3,0.3 -0.3,0.27 -0.3,0.25 -0.2,0.12 -0.1,0.11 -0.2,0.1 -0.2,0.09 -0.2,0.08 -0.1,0.08 -0.2,0.07 -0.2,0.06 -0.2,0.05 -0.3,0.05 -0.2,0.03 -0.2,0.03 -0.2,0.01 -0.3,0.01 0,-1.1 c 2.4,0 2.7,-3.18 2.7,-6.03 0,-2.44 -0.4,-4.98 -1.6,-9.92 h -10.4 c 0.9,3.2 1.9,7.19 3.9,10.72 1.3,2.44 3.1,5.23 5.4,5.23 l 0,1.1 c -6.9,0 -14.6,-14.05 -14.6,-25.46 0,-4.68 1.5,-10.22 6,-10.22 v 1.1 c -1.6,0 -2.7,1.45 -2.7,6.08 0,2.09 0.3,4.98 1.6,9.86 h 10.4 c -0.5,-2.29 -1.6,-6.52 -3.5,-10.11 -1.7,-3.39 -3.6,-5.83 -5.8,-5.83 v -1.1 c 7,0 14.6,14.3 14.6,25.46 z"
           inkscape:connector-curvature="0"
           style="fill:#000000;stroke-width:0" /><path
           id="path4432"
           d="m 1165.2,365.27 0,0.14 -0.1,0.13 0,0.13 0,0.13 0,0.13 -0.1,0.12 0,0.13 0,0.12 -0.1,0.11 -0.1,0.12 0,0.11 -0.1,0.1 -0.1,0.11 0,0.1 -0.1,0.09 -0.1,0.09 -0.1,0.09 -0.1,0.09 -0.1,0.07 -0.1,0.08 -0.1,0.07 -0.1,0.06 -0.1,0.06 -0.2,0.05 -0.1,0.05 -0.1,0.04 -0.1,0.04 -0.2,0.03 -0.1,0.02 -0.1,0.02 -0.1,0.01 -0.2,0 c -1.4,0 -2.6,-1.19 -2.6,-2.64 0,-1.44 1.2,-2.64 2.6,-2.64 1.5,0 2.7,1.2 2.7,2.64 z"
           inkscape:connector-curvature="0"
           style="fill:#000000;stroke-width:0" /><path
           id="path4434"
           d="m 1164.2,346.99 0,-0.14 0,-0.15 0,-0.17 0,-0.18 0,-0.19 0,-0.2 0,-0.21 0,-0.23 -0.1,-0.24 0,-0.25 0,-0.25 0,-0.27 -0.1,-0.27 0,-0.29 -0.1,-0.29 -0.1,-0.29 -0.1,-0.31 0,-0.31 -0.1,-0.32 -0.2,-0.32 -0.1,-0.33 -0.1,-0.33 -0.2,-0.33 -0.1,-0.34 -0.2,-0.34 -0.2,-0.34 -0.2,-0.35 -0.2,-0.34 -0.3,-0.35 -0.2,-0.35 -0.3,-0.34 -0.3,-0.35 c -0.3,-0.39 -0.3,-0.5 -0.3,-0.64 0,-0.36 0.2,-0.55 0.5,-0.55 0.5,0 4.1,3.99 4.1,9.77 0,1.44 -0.1,5.12 -2.8,5.12 -1.7,0 -2.6,-1.34 -2.6,-2.64 0,-1.29 0.8,-2.64 2.6,-2.64 0.3,0 0.4,0 0.4,0.05 0.4,0.05 0.9,0.15 1.3,0.5 z"
           inkscape:connector-curvature="0"
           style="fill:#000000;stroke-width:0" /><path
           id="path4436"
           d="m 1200.3,371.35 0,0.32 0,0.34 0,0.35 0,0.37 0,0.39 -0.1,0.4 0,0.4 -0.1,0.42 0,0.42 -0.1,0.42 -0.1,0.42 -0.1,0.43 -0.1,0.42 -0.2,0.42 -0.1,0.42 -0.1,0.4 -0.2,0.4 -0.2,0.38 -0.2,0.38 -0.2,0.35 -0.3,0.34 -0.2,0.32 -0.3,0.3 -0.3,0.27 -0.3,0.25 -0.1,0.12 -0.2,0.11 -0.2,0.1 -0.2,0.09 -0.1,0.08 -0.2,0.08 -0.2,0.07 -0.2,0.06 -0.2,0.05 -0.2,0.05 -0.3,0.03 -0.2,0.03 -0.2,0.01 -0.2,0.01 -0.1,-1.1 c 2.5,0 2.7,-3.18 2.7,-6.03 0,-2.44 -0.3,-4.98 -1.6,-9.92 H 1185 c 0.9,3.2 1.9,7.19 3.9,10.72 1.3,2.44 3.2,5.23 5.4,5.23 l 0.1,1.1 c -7,0 -14.6,-14.05 -14.6,-25.46 0,-4.68 1.4,-10.22 6,-10.22 v 1.1 c -1.7,0 -2.8,1.45 -2.8,6.08 0,2.09 0.3,4.98 1.6,9.86 h 10.4 c -0.5,-2.29 -1.6,-6.52 -3.5,-10.11 -1.7,-3.39 -3.6,-5.83 -5.7,-5.83 v -1.1 c 7,0 14.5,14.3 14.5,25.46 z"
           inkscape:connector-curvature="0"
           style="fill:#000000;stroke-width:0" /><path
           id="path4438"
           d="m 1219.1,349.99 0,0.71 -0.1,0.68 0,0.66 0,0.64 -0.1,0.62 -0.1,0.59 -0.1,0.58 -0.1,0.56 -0.1,0.55 -0.1,0.52 -0.2,0.52 -0.2,0.5 -0.2,0.49 -0.2,0.48 -0.3,0.47 -0.2,0.23 -0.1,0.23 c -1.1,1.61 -3.2,3 -6,3 -8.1,0 -8.1,-9.52 -8.1,-12.03 0,-2.5 0,-11.81 8.1,-11.81 v 0.98 c -1.6,0 -3.8,0.94 -4.4,3.8 -0.5,2.04 -0.5,4.9 -0.5,7.48 0,2.55 0,5.2 0.5,7.11 0.7,2.75 3,3.49 4.4,3.49 1.9,0 3.7,-1.15 4.3,-3.18 0.6,-1.87 0.6,-4.39 0.6,-7.42 0,-2.58 0,-5.15 -0.5,-7.34 -0.7,-3.17 -3,-3.94 -4.4,-3.94 h 0 v -0.98 c 8.1,0 8.1,9.31 8.1,11.81 z"
           inkscape:connector-curvature="0"
           style="fill:#000000;stroke-width:0" /><path
           id="path4440"
           d="m 1233.5,346.49 0,0.3 0,0.3 0,0.29 0,0.28 -0.1,0.27 0,0.27 -0.1,0.25 0,0.25 -0.1,0.23 0,0.23 -0.1,0.22 -0.1,0.21 -0.1,0.2 -0.1,0.2 -0.1,0.18 -0.1,0.17 -0.1,0.17 -0.1,0.15 -0.1,0.14 -0.1,0.14 -0.1,0.12 -0.2,0.11 -0.1,0.11 -0.2,0.09 -0.1,0.08 -0.2,0.07 -0.1,0.06 -0.2,0.05 -0.2,0.04 -0.1,0.03 -0.2,0.02 -0.2,0 c -1.6,0 -2.6,-1.25 -2.6,-2.64 0,-1.34 1,-2.64 2.6,-2.64 0.6,0 1.3,0.2 1.8,0.64 0.1,0.11 0.2,0.16 0.2,0.16 0.1,0 0.1,-0.05 0.1,-0.75 0,-3.69 -1.7,-6.67 -3.4,-8.31 -0.5,-0.55 -0.5,-0.66 -0.5,-0.8 0,-0.36 0.2,-0.55 0.5,-0.55 0.5,0 4.5,3.83 4.5,9.66 z"
           inkscape:connector-curvature="0"
           style="fill:#000000;stroke-width:0" /><path
           id="path4442"
           d="m 1260.1,378.33 0,0.06 0,0.05 0,0.05 0,0.05 0,0.05 0,0.05 0,0.04 0,0.05 0,0.04 0,0.04 0,0.04 0,0.04 0,0.04 0,0.04 0,0.03 0,0.04 0,0.06 0,0.06 0,0.05 0,0.05 -0.1,0.05 0,0.04 0,0.04 0,0.04 -0.1,0.03 0,0.03 0,0.02 -0.1,0.02 0,0.02 0,0.01 -0.1,0.01 0,0 0,0.01 0,0.01 -0.1,0 0,0.01 0,0 -0.1,0.01 0,0 0,0 -0.1,0.01 0,0 0,0 -0.1,0 0,0.01 -0.1,0 0,0 -0.1,0 0,0 -0.1,0 0,0 c -3.1,-3.19 -7.5,-3.19 -9.1,-3.19 v -1.55 c 1,0 3.9,0 6.5,1.3 v -25.81 c 0,-1.8 -0.1,-2.39 -4.6,-2.39 h -1.6 v -1.55 c 1.8,0.16 6.1,0.16 8.1,0.16 2,0 6.3,0 8,-0.16 v 1.55 h -1.5 c -4.5,0 -4.7,0.55 -4.7,2.39 z"
           inkscape:connector-curvature="0"
           style="fill:#000000;stroke-width:0" /><path
           id="path4444"
           d="m 1284.8,358.89 0,0.38 0,0.38 0,0.39 0,0.41 0,0.84 -0.1,0.88 -0.1,0.92 -0.1,0.95 -0.1,0.98 -0.2,1 -0.2,1.02 -0.2,1.04 -0.3,1.05 -0.3,1.06 -0.3,1.06 -0.4,1.07 -0.2,0.53 -0.3,0.53 -0.2,0.53 -0.3,0.53 c -2.9,6.13 -7.2,9.36 -7.7,9.36 -0.3,0 -0.5,-0.19 -0.5,-0.48 0,-0.16 0,-0.25 0.9,-1.16 4.9,-4.92 7.7,-12.84 7.7,-23.27 0,-8.51 -1.8,-17.28 -8,-23.56 -0.6,-0.59 -0.6,-0.7 -0.6,-0.84 0,-0.3 0.2,-0.5 0.5,-0.5 0.5,0 5,3.39 7.9,9.72 2.5,5.47 3.1,11 3.1,15.18 z"
           inkscape:connector-curvature="0"
           style="fill:#000000;stroke-width:0" /><path
           id="path4446"
           d="m 1321.3,357.89 h 13.9 c 0.7,0 1.6,0 1.6,1 0,1 -0.9,1 -1.6,1 h -13.9 v 13.96 c 0,0.69 0,1.64 -1,1.64 -1,0 -1,-0.95 -1,-1.64 v -13.96 h -14 c -0.7,0 -1.6,0 -1.6,-1 0,-1 0.9,-1 1.6,-1 h 14 v -13.93 c 0,-0.71 0,-1.66 1,-1.66 1,0 1,0.95 1,1.66 z"
           inkscape:connector-curvature="0"
           style="fill:#000000;stroke-width:0" /><path
           id="path4448"
           d="m 1373.2,367.91 0,0.02 0,0.02 0,0.02 0,0.02 0,0.02 0,0.02 0,0.02 0,0.02 0,0.02 0,0.03 0,0.02 0,0.02 -0.1,0.02 0,0.02 0,0.02 0,0.02 0,0.01 0,0.02 0,0.02 -0.1,0.02 0,0.01 0,0.01 0,0.02 -0.1,0.01 0,0.01 0,0.01 0,0.01 -0.1,0.01 0,0 0,0.01 0,0 -0.1,0 0,0 c -0.5,0 -2.5,-1.98 -3.4,-3.44 -1.1,2.69 -3,3.49 -4.6,3.49 v -1.1 c 3.2,0 3.9,-4.03 3.9,-4.37 0,-0.31 -2.7,-11.22 -2.8,-11.42 -0.8,-1.39 -3.6,-4.58 -6.4,-4.58 h 0 c -3,0 -3.2,3.84 -3.2,4.69 0,2.39 1.5,7.81 2.3,9.9 1.6,3.69 4.2,5.78 6.2,5.78 v 1.1 c -5.9,0 -12,-7.38 -12,-14.6 0,-4.87 2.9,-7.97 6.6,-7.97 2.1,0 4.1,1.19 5.9,2.99 -0.5,-1.74 -2.1,-8.47 -2.3,-8.92 -0.4,-1.39 -0.8,-1.6 -3.6,-1.64 -0.6,0 -1.1,0 -1.1,-1 0,-0.05 0,-0.55 0.6,-0.55 1.6,0 3.4,0.16 5,0.16 1.7,0 3.5,-0.16 5.1,-0.16 0.3,0 0.9,0 0.9,1 0,0.55 -0.5,0.55 -1.2,0.55 -2.5,0 -2.5,0.36 -2.5,0.79 0,0.36 0.1,0.66 0.2,1.1 z"
           inkscape:connector-curvature="0"
           style="fill:#000000;stroke-width:0" /><path
           id="path4450"
           d="m 1384.6,361.04 0,0.04 0,0.04 0,0.04 0,0.04 0,0.04 0,0.04 0,0.04 0,0.03 0,0.03 0,0.04 0,0.03 0,0.03 0,0.03 0,0.03 0,0.02 0,0.03 0,0.03 0,0.02 0,0.02 -0.1,0.03 0,0.04 0,0.04 0,0.03 0,0.03 0,0.03 -0.1,0.02 0,0.03 0,0.02 -0.1,0.01 0,0.02 0,0.01 -0.1,0.01 0,0.01 0,0 0,0.01 -0.1,0 0,0 0,0.01 -0.1,0 0,0 0,0 -0.1,0 0,0.01 0,0 -0.1,0 0,0 0,0 -0.1,0 0,0 -0.1,0 0,0 0,0 c -2.3,-2.2 -5.4,-2.23 -6.9,-2.23 v -1.25 c 0.9,0 3.2,0 5.1,0.96 v -17.76 c 0,-1.16 0,-1.61 -3.5,-1.61 h -1.3 v -1.25 c 0.6,0.03 4.9,0.14 6.2,0.14 1,0 5.4,-0.11 6.2,-0.14 v 1.25 h -1.3 c -3.5,0 -3.5,0.45 -3.5,1.61 z"
           inkscape:connector-curvature="0"
           style="fill:#000000;stroke-width:0" /><path
           id="path4452"
           d="m 1411.8,334.49 0,0.02 0,0.03 0,0.01 0,0.02 0,0.01 0,0.02 0,0.02 0,0.01 0,0.02 0,0.02 0,0.03 0,0.02 0,0.02 -0.1,0.03 0,0.03 0,0.03 0,0.04 -0.1,0.03 0,0.02 0,0.02 0,0.02 0,0.02 -0.1,0.02 0,0.03 0,0.02 0,0.02 0,0.03 -0.1,0.03 0,0.02 0,0.03 0,0.03 -0.1,0.03 0,0.03 0,0.03 -0.1,0.03 0,0.03 0,0.04 -0.1,0.03 0,0.04 0,0.04 -0.1,0.03 0,0.04 c -6.2,6.28 -7.8,15.69 -7.8,23.31 0,8.68 1.9,17.35 8,23.57 0.6,0.61 0.6,0.7 0.6,0.86 0,0.34 -0.1,0.48 -0.4,0.48 -0.5,0 -5,-3.37 -8,-9.7 -2.5,-5.49 -3.1,-11.02 -3.1,-15.21 0,-3.89 0.5,-9.9 3.3,-15.54 3,-6.13 7.3,-9.36 7.8,-9.36 0.3,0 0.4,0.14 0.4,0.5 z"
           inkscape:connector-curvature="0"
           style="fill:#000000;stroke-width:0" /><path
           id="path4454"
           d="m 1437.3,371.35 0,0.32 0,0.34 0,0.35 0,0.37 0,0.39 -0.1,0.4 0,0.4 -0.1,0.42 0,0.42 -0.1,0.42 -0.1,0.42 -0.1,0.43 -0.1,0.42 -0.1,0.42 -0.2,0.42 -0.1,0.4 -0.2,0.4 -0.2,0.38 -0.2,0.38 -0.2,0.35 -0.2,0.34 -0.3,0.32 -0.3,0.3 -0.3,0.27 -0.3,0.25 -0.1,0.12 -0.2,0.11 -0.2,0.1 -0.2,0.09 -0.1,0.08 -0.2,0.08 -0.2,0.07 -0.2,0.06 -0.2,0.05 -0.2,0.05 -0.3,0.03 -0.2,0.03 -0.2,0.01 -0.2,0.01 -0.1,-1.1 c 2.5,0 2.8,-3.18 2.8,-6.03 0,-2.44 -0.4,-4.98 -1.6,-9.92 h -10.4 c 0.8,3.2 1.8,7.19 3.8,10.72 1.3,2.44 3.2,5.23 5.4,5.23 l 0.1,1.1 c -7,0 -14.6,-14.05 -14.6,-25.46 0,-4.68 1.4,-10.22 6,-10.22 v 1.1 c -1.7,0 -2.7,1.45 -2.7,6.08 0,2.09 0.2,4.98 1.5,9.86 h 10.4 c -0.5,-2.29 -1.6,-6.52 -3.5,-10.11 -1.7,-3.39 -3.6,-5.83 -5.7,-5.83 v -1.1 c 7,0 14.5,14.3 14.5,25.46 z"
           inkscape:connector-curvature="0"
           style="fill:#000000;stroke-width:0" /><path
           id="path4456"
           d="m 1453.9,358.89 0,0.38 0,0.38 0,0.39 0,0.41 -0.1,0.84 0,0.88 -0.1,0.92 -0.1,0.95 -0.1,0.98 -0.2,1 -0.2,1.02 -0.2,1.04 -0.3,1.05 -0.3,1.06 -0.4,1.06 -0.4,1.07 -0.2,0.53 -0.2,0.53 -0.2,0.53 -0.3,0.53 c -3,6.13 -7.2,9.36 -7.7,9.36 -0.3,0 -0.5,-0.19 -0.5,-0.48 0,-0.16 0,-0.25 0.9,-1.16 4.9,-4.92 7.7,-12.84 7.7,-23.27 0,-8.51 -1.8,-17.28 -8,-23.56 -0.6,-0.59 -0.6,-0.7 -0.6,-0.84 0,-0.3 0.2,-0.5 0.5,-0.5 0.5,0 4.9,3.39 7.9,9.72 2.5,5.47 3.1,11 3.1,15.18 z"
           inkscape:connector-curvature="0"
           style="fill:#000000;stroke-width:0" /></g>    </g>
  </g>
</svg>
